<?xml version="1.0" encoding="UTF-8"?>
<svg version="1.1" xmlns="http://www.w3.org/2000/svg" width="512" height="512">
<path d="M0 0 C0.97055328 0.00215515 1.94110657 0.0043103 2.94107056 0.00653076 C17.26930898 0.0575666 31.29685782 0.40491562 45.375 3.3125 C46.35807129 3.51117676 47.34114258 3.70985352 48.35400391 3.91455078 C64.53287558 7.27937298 82.64180028 11.07679087 97.125 19.34375 C109.6110495 26.39605573 123.39893019 25.42370047 137.375 25.3125 C137.34744629 24.34610596 137.31989258 23.37971191 137.29150391 22.3840332 C137.27007324 21.11906006 137.24864258 19.85408691 137.2265625 18.55078125 C137.19900879 17.29563721 137.17145508 16.04049316 137.14306641 14.74731445 C137.37066144 11.37675176 137.61750633 10.02695457 139.75 7.5 C142.78357009 4.97202493 143.7103877 4.38918603 147.625 3.9375 C152.56772958 4.43177296 153.91328301 5.85078301 157.375 9.3125 C159.60602556 13.77455113 158.41846299 20.53157124 158.375 25.3125 C164.645 25.3125 170.915 25.3125 177.375 25.3125 C177.271875 23.12625 177.16875 20.94 177.0625 18.6875 C177.03833347 10.72060101 177.03833347 10.72060101 179.75 7.5 C182.78357009 4.97202493 183.7103877 4.38918603 187.625 3.9375 C192.56772958 4.43177296 193.91328301 5.85078301 197.375 9.3125 C198.87656874 12.31563748 198.46781204 15.10317522 198.4375 18.4375 C198.42847656 19.71882813 198.41945313 21.00015625 198.41015625 22.3203125 C198.39275391 23.80144531 198.39275391 23.80144531 198.375 25.3125 C199.91220703 25.26029297 199.91220703 25.26029297 201.48046875 25.20703125 C202.84112936 25.17887965 204.2018078 25.15158096 205.5625 25.125 C206.23603516 25.09986328 206.90957031 25.07472656 207.60351562 25.04882812 C212.08355667 24.98326655 214.83537634 25.53645146 218.375 28.3125 C220.65017076 31.72525615 220.63572835 32.97782463 220.66552734 36.98974609 C220.67828705 38.15460541 220.69104675 39.31946472 220.70419312 40.5196228 C220.70753159 42.40869858 220.70753159 42.40869858 220.7109375 44.3359375 C220.7175943 45.62940094 220.7242511 46.92286438 220.73110962 48.25552368 C220.74308273 50.99427629 220.74679048 53.73290276 220.74560547 56.47167969 C220.74540238 59.9745698 220.77269173 63.4766476 220.80714989 66.97934532 C220.83479026 70.32738812 220.83356877 73.67528208 220.8359375 77.0234375 C220.85030853 78.27877289 220.86467957 79.53410828 220.87948608 80.82748413 C220.87333282 81.99864777 220.86717957 83.1698114 220.86083984 84.37646484 C220.86368988 85.40444183 220.86653992 86.43241882 220.86947632 87.49154663 C220.24041935 91.08027335 218.9267268 92.75252991 216.375 95.3125 C213.125 96.125 213.125 96.125 210.375 96.3125 C209.07809566 114.63590558 214.83986413 126.36852289 223.66455078 142.11035156 C227.77921818 149.81345998 230.62594584 158.04259121 233.375 166.3125 C233.65279297 167.14297852 233.93058594 167.97345703 234.21679688 168.82910156 C237.21364042 177.93598025 239.7018199 187.10663893 241.625 196.5 C241.77614258 197.23420166 241.92728516 197.96840332 242.08300781 198.72485352 C244.86142934 213.21121723 245.70205728 227.51828458 245.63574219 242.24023438 C245.62506358 245.04579536 245.63568504 247.85070876 245.6484375 250.65625 C245.65171232 260.99317846 245.25113731 271.09966908 243.73321533 281.34051514 C242.85622176 288.32534735 244.51193172 291.72474824 248.60009766 297.45483398 C248.99245605 297.92219971 249.38481445 298.38956543 249.7890625 298.87109375 C263.67304444 316.57962239 267.81377446 342.0596122 267.75 363.8125 C267.74918427 364.8636499 267.74918427 364.8636499 267.74835205 365.93603516 C267.64160307 395.96238795 257.76543065 423.29596663 238.375 446.3125 C237.63378906 447.20582031 236.89257812 448.09914063 236.12890625 449.01953125 C230.78723789 455.21815175 224.87334646 460.35739461 218.375 465.3125 C217.60800781 465.90675781 216.84101563 466.50101562 216.05078125 467.11328125 C203.15175082 476.63972987 188.76056243 483.03972173 173.375 487.3125 C172.19808594 487.6528125 171.02117187 487.993125 169.80859375 488.34375 C145.08807009 494.20503772 111.72590056 492.52866062 89.21948242 480.12451172 C84.78642477 477.72898106 82.10741269 476.96570816 77.16796875 478.3125 C75.28997779 478.951912 73.42159303 479.62006165 71.5625 480.3125 C69.52463198 481.00092457 67.48420029 481.68180196 65.44140625 482.35546875 C64.42449707 482.69368652 63.40758789 483.0319043 62.35986328 483.38037109 C57.95849317 484.75485425 53.52268661 485.74322682 49 486.625 C48.2783667 486.77130859 47.5567334 486.91761719 46.81323242 487.06835938 C31.48637536 489.97841503 16.31468332 490.68727938 0.75 490.625 C-0.22055328 490.62284485 -1.19110657 490.6206897 -2.19107056 490.61846924 C-16.52275971 490.56742111 -30.5419071 490.20725602 -44.625 487.3125 C-46.08365479 487.02246094 -46.08365479 487.02246094 -47.57177734 486.7265625 C-102.89595475 475.41917661 -155.66156918 445.1326427 -190.625 400.3125 C-191.41390625 399.32894531 -192.2028125 398.34539062 -193.015625 397.33203125 C-211.12105231 374.57389267 -224.41321826 348.85215147 -233.625 321.3125 C-233.88748535 320.52939453 -234.1499707 319.74628906 -234.42041016 318.93945312 C-237.07809094 310.84634023 -239.09223636 302.65268523 -240.8125 294.3125 C-241.0451355 293.19343262 -241.0451355 293.19343262 -241.2824707 292.05175781 C-244.28526554 276.62377433 -245.00023767 261.36671691 -244.9375 245.6875 C-244.93534485 244.71694672 -244.9331897 243.74639343 -244.93096924 242.74642944 C-244.8799334 228.41819102 -244.53258438 214.39064218 -241.625 200.3125 C-241.42632324 199.32942871 -241.22764648 198.34635742 -241.02294922 197.33349609 C-237.42920493 180.05391211 -233.10523229 161.9487641 -224.4453125 146.44140625 C-217.59520984 134.05057265 -214.49314568 124.11193508 -214.625 110.0625 C-214.62846436 109.36069611 -214.63192871 108.65889221 -214.63549805 107.93582153 C-214.35538604 99.88876986 -214.35538604 99.88876986 -217.63293457 92.98724365 C-219.98980247 89.82268019 -220.13044189 88.30546939 -220.14257812 84.40820312 C-220.15518677 83.24349487 -220.16779541 82.07878662 -220.18078613 80.87878418 C-220.17268921 79.6297229 -220.16459229 78.38066162 -220.15625 77.09375 C-220.1600769 75.80311646 -220.16390381 74.51248291 -220.16784668 73.18273926 C-220.1737312 70.45577771 -220.16521376 67.72934167 -220.14648438 65.00244141 C-220.12369402 61.51521218 -220.13682293 58.02921442 -220.16077423 54.54203033 C-220.17874291 51.20500606 -220.16614484 47.86830922 -220.15625 44.53125 C-220.16434692 43.28218872 -220.17244385 42.03312744 -220.18078613 40.74621582 C-220.16817749 39.58150757 -220.15556885 38.41679932 -220.14257812 37.21679688 C-220.13780457 35.68388 -220.13780457 35.68388 -220.13293457 34.11999512 C-219.48790397 30.55473223 -218.1431842 28.87547094 -215.625 26.3125 C-212.9187563 25.41041877 -211.38649014 25.19022401 -208.61254883 25.19897461 C-207.81194534 25.19905014 -207.01134186 25.19912567 -206.18647766 25.19920349 C-204.89727669 25.20694542 -204.89727669 25.20694542 -203.58203125 25.21484375 C-202.6984343 25.2162587 -201.81483734 25.21767365 -200.90446472 25.21913147 C-198.08210872 25.22472931 -195.25983203 25.23728139 -192.4375 25.25 C-190.52408969 25.25501528 -188.61067813 25.25957814 -186.69726562 25.26367188 C-182.00647986 25.27469803 -177.31575337 25.29196117 -172.625 25.3125 C-172.66633057 23.86290894 -172.66633057 23.86290894 -172.70849609 22.3840332 C-172.72992676 21.11906006 -172.75135742 19.85408691 -172.7734375 18.55078125 C-172.81476807 16.66806519 -172.81476807 16.66806519 -172.85693359 14.74731445 C-172.62933856 11.37675176 -172.38249367 10.02695457 -170.25 7.5 C-167.21642991 4.97202493 -166.2896123 4.38918603 -162.375 3.9375 C-157.43227042 4.43177296 -156.08671699 5.85078301 -152.625 9.3125 C-150.39397444 13.77455113 -151.58153701 20.53157124 -151.625 25.3125 C-145.355 25.3125 -139.085 25.3125 -132.625 25.3125 C-132.728125 23.12625 -132.83125 20.94 -132.9375 18.6875 C-132.96166653 10.72060101 -132.96166653 10.72060101 -130.25 7.5 C-127.21642991 4.97202493 -126.2896123 4.38918603 -122.375 3.9375 C-117.43227042 4.43177296 -116.08671699 5.85078301 -112.625 9.3125 C-111.12343126 12.31563748 -111.53218796 15.10317522 -111.5625 18.4375 C-111.57152344 19.71882813 -111.58054688 21.00015625 -111.58984375 22.3203125 C-111.60724609 23.80144531 -111.60724609 23.80144531 -111.625 25.3125 C-106.76337453 23.38045426 -101.9072872 21.43940291 -97.08203125 19.41796875 C-81.24599917 12.83773072 -65.07372362 7.42705481 -48.25 4 C-47.52748047 3.85272461 -46.80496094 3.70544922 -46.06054688 3.55371094 C-30.72941368 0.65963761 -15.56727809 -0.06228976 0 0 Z " fill="#FEFEFE" transform="translate(244.625,10.6875)"/>
<path d="M0 0 C6.36325853 5.38376694 12.07809569 11.13091383 17.43310547 17.52978516 C18.08408203 18.24779297 18.73505859 18.96580078 19.40576172 19.70556641 C30.41324297 32.37620586 37.03748741 48.50291725 41.43310547 64.52978516 C41.94164062 66.29128906 41.94164062 66.29128906 42.46044922 68.08837891 C50.30651743 101.09971659 43.01814905 136.97167438 25.43310547 165.52978516 C22.37975133 170.0977573 18.9706346 174.33072126 15.43310547 178.52978516 C14.69189453 179.42310547 13.95068359 180.31642578 13.18701172 181.23681641 C7.84534336 187.43543691 1.93145193 192.57467977 -4.56689453 197.52978516 C-5.33388672 198.12404297 -6.10087891 198.71830078 -6.89111328 199.33056641 C-19.79014371 208.85701502 -34.1813321 215.25700688 -49.56689453 219.52978516 C-50.74380859 219.87009766 -51.92072266 220.21041016 -53.13330078 220.56103516 C-71.46147404 224.90668326 -95.50133672 224.77842926 -113.56689453 219.52978516 C-114.29505371 219.32047363 -115.02321289 219.11116211 -115.7734375 218.89550781 C-125.27883196 216.10723246 -134.15388006 212.84452234 -142.56689453 207.52978516 C-143.1240918 207.18463867 -143.68128906 206.83949219 -144.25537109 206.48388672 C-175.7590304 186.8511715 -196.76143974 158.59935555 -205.60205078 122.45556641 C-212.7452289 89.93758541 -205.2414064 56.62694003 -188.06689453 28.65478516 C-168.56356791 -0.6872732 -139.86467229 -20.39512126 -105.47412109 -27.94873047 C-67.91017761 -35.27739988 -29.19051077 -24.06339001 0 0 Z " fill="#FEC143" transform="translate(467.56689453125,278.47021484375)"/>
<path d="M0 0 C0.97055328 0.00215515 1.94110657 0.0043103 2.94107056 0.00653076 C17.26930898 0.0575666 31.29685782 0.40491562 45.375 3.3125 C46.35807129 3.51117676 47.34114258 3.70985352 48.35400391 3.91455078 C64.53287558 7.27937298 82.64180028 11.07679087 97.125 19.34375 C109.6110495 26.39605573 123.39893019 25.42370047 137.375 25.3125 C137.34744629 24.34610596 137.31989258 23.37971191 137.29150391 22.3840332 C137.27007324 21.11906006 137.24864258 19.85408691 137.2265625 18.55078125 C137.19900879 17.29563721 137.17145508 16.04049316 137.14306641 14.74731445 C137.37066144 11.37675176 137.61750633 10.02695457 139.75 7.5 C142.78357009 4.97202493 143.7103877 4.38918603 147.625 3.9375 C152.56772958 4.43177296 153.91328301 5.85078301 157.375 9.3125 C159.60602556 13.77455113 158.41846299 20.53157124 158.375 25.3125 C164.645 25.3125 170.915 25.3125 177.375 25.3125 C177.271875 23.12625 177.16875 20.94 177.0625 18.6875 C177.03833347 10.72060101 177.03833347 10.72060101 179.75 7.5 C182.78357009 4.97202493 183.7103877 4.38918603 187.625 3.9375 C192.56772958 4.43177296 193.91328301 5.85078301 197.375 9.3125 C198.87656874 12.31563748 198.46781204 15.10317522 198.4375 18.4375 C198.42847656 19.71882813 198.41945313 21.00015625 198.41015625 22.3203125 C198.39275391 23.80144531 198.39275391 23.80144531 198.375 25.3125 C199.91220703 25.26029297 199.91220703 25.26029297 201.48046875 25.20703125 C202.84112936 25.17887965 204.2018078 25.15158096 205.5625 25.125 C206.23603516 25.09986328 206.90957031 25.07472656 207.60351562 25.04882812 C212.08355667 24.98326655 214.83537634 25.53645146 218.375 28.3125 C220.65017076 31.72525615 220.63572835 32.97782463 220.66552734 36.98974609 C220.67828705 38.15460541 220.69104675 39.31946472 220.70419312 40.5196228 C220.70753159 42.40869858 220.70753159 42.40869858 220.7109375 44.3359375 C220.7175943 45.62940094 220.7242511 46.92286438 220.73110962 48.25552368 C220.74308273 50.99427629 220.74679048 53.73290276 220.74560547 56.47167969 C220.74540238 59.9745698 220.77269173 63.4766476 220.80714989 66.97934532 C220.83479026 70.32738812 220.83356877 73.67528208 220.8359375 77.0234375 C220.85030853 78.27877289 220.86467957 79.53410828 220.87948608 80.82748413 C220.87333282 81.99864777 220.86717957 83.1698114 220.86083984 84.37646484 C220.86368988 85.40444183 220.86653992 86.43241882 220.86947632 87.49154663 C220.22631491 91.16073823 219.08823933 92.77647286 216.375 95.3125 C211.90553885 96.36006024 207.57156693 96.43640645 202.9948864 96.43389702 C202.26991453 96.43486047 201.54494266 96.43582392 200.79800195 96.43681657 C198.36790369 96.43880159 195.93787476 96.43361391 193.50778198 96.42843628 C191.74828944 96.42832205 189.98879683 96.42863599 188.22930443 96.42934144 C183.39350223 96.42995086 178.55772544 96.42418664 173.72192883 96.41731787 C168.50718668 96.41095901 163.29244313 96.41032704 158.07769775 96.40879822 C145.48829353 96.40371285 132.89890898 96.38864453 120.30951566 96.37186974 C116.75539163 96.36720483 113.20126738 96.36281032 109.64714289 96.35851526 C87.58440398 96.33184931 65.52167192 96.30205631 43.45895195 96.26254082 C38.35105267 96.25344005 33.24315333 96.24436995 28.13525391 96.23535156 C26.86569426 96.233107 25.59613462 96.23086243 24.28810348 96.22854985 C3.69529719 96.19271001 -16.89747144 96.17745559 -37.49030568 96.17059408 C-58.62179115 96.16320548 -79.75318859 96.13710634 -100.88462913 96.09264576 C-112.75378443 96.06815157 -124.62282536 96.05203311 -136.49200821 96.05691147 C-146.59355963 96.06101666 -156.6949098 96.04833133 -166.79640473 96.01335029 C-171.95336997 95.99601779 -177.11001547 95.98689894 -182.26700211 95.99936104 C-186.98332553 96.01057138 -191.69900987 95.99898089 -196.41524528 95.96884955 C-198.12574574 95.9620089 -199.83630482 95.9636971 -201.54678454 95.97454952 C-203.86415613 95.98802785 -206.17933883 95.97104398 -208.49656868 95.94614983 C-209.78588425 95.94446859 -211.07519982 95.94278736 -212.40358555 95.94105518 C-215.625 95.3125 -215.625 95.3125 -218.03878105 92.94836533 C-219.90815514 89.84197302 -220.13134555 88.01528023 -220.14257812 84.40820312 C-220.15518677 83.24349487 -220.16779541 82.07878662 -220.18078613 80.87878418 C-220.17268921 79.6297229 -220.16459229 78.38066162 -220.15625 77.09375 C-220.1600769 75.80311646 -220.16390381 74.51248291 -220.16784668 73.18273926 C-220.1737312 70.45577771 -220.16521376 67.72934167 -220.14648438 65.00244141 C-220.12369402 61.51521218 -220.13682293 58.02921442 -220.16077423 54.54203033 C-220.17874291 51.20500606 -220.16614484 47.86830922 -220.15625 44.53125 C-220.16434692 43.28218872 -220.17244385 42.03312744 -220.18078613 40.74621582 C-220.16817749 39.58150757 -220.15556885 38.41679932 -220.14257812 37.21679688 C-220.13939575 36.19485229 -220.13621338 35.17290771 -220.13293457 34.11999512 C-219.48790397 30.55473223 -218.1431842 28.87547094 -215.625 26.3125 C-212.9187563 25.41041877 -211.38649014 25.19022401 -208.61254883 25.19897461 C-207.81194534 25.19905014 -207.01134186 25.19912567 -206.18647766 25.19920349 C-204.89727669 25.20694542 -204.89727669 25.20694542 -203.58203125 25.21484375 C-202.6984343 25.2162587 -201.81483734 25.21767365 -200.90446472 25.21913147 C-198.08210872 25.22472931 -195.25983203 25.23728139 -192.4375 25.25 C-190.52408969 25.25501528 -188.61067813 25.25957814 -186.69726562 25.26367188 C-182.00647986 25.27469803 -177.31575337 25.29196117 -172.625 25.3125 C-172.65255371 24.34610596 -172.68010742 23.37971191 -172.70849609 22.3840332 C-172.74064209 20.48657349 -172.74064209 20.48657349 -172.7734375 18.55078125 C-172.80099121 17.29563721 -172.82854492 16.04049316 -172.85693359 14.74731445 C-172.62933856 11.37675176 -172.38249367 10.02695457 -170.25 7.5 C-167.21642991 4.97202493 -166.2896123 4.38918603 -162.375 3.9375 C-157.43227042 4.43177296 -156.08671699 5.85078301 -152.625 9.3125 C-150.39397444 13.77455113 -151.58153701 20.53157124 -151.625 25.3125 C-145.355 25.3125 -139.085 25.3125 -132.625 25.3125 C-132.728125 23.12625 -132.83125 20.94 -132.9375 18.6875 C-132.96166653 10.72060101 -132.96166653 10.72060101 -130.25 7.5 C-127.21642991 4.97202493 -126.2896123 4.38918603 -122.375 3.9375 C-117.43227042 4.43177296 -116.08671699 5.85078301 -112.625 9.3125 C-111.12343126 12.31563748 -111.53218796 15.10317522 -111.5625 18.4375 C-111.57152344 19.71882813 -111.58054687 21.00015625 -111.58984375 22.3203125 C-111.60144531 23.30773437 -111.61304688 24.29515625 -111.625 25.3125 C-106.76337453 23.38045426 -101.9072872 21.43940291 -97.08203125 19.41796875 C-81.24599917 12.83773072 -65.07372362 7.42705481 -48.25 4 C-47.52748047 3.85272461 -46.80496094 3.70544922 -46.06054688 3.55371094 C-30.72941368 0.65963761 -15.56727809 -0.06228976 0 0 Z " fill="#0065EC" transform="translate(244.625,10.6875)"/>
<path d="M0 0 C0.33 0 0.66 0 1 0 C1.00423194 1.06074706 1.00846388 2.12149412 1.01282406 3.21438503 C1.115864 28.98474344 1.22459233 54.75507302 1.33933926 80.52538204 C1.39469653 92.98753341 1.44818257 105.44968764 1.49731445 117.91186523 C1.54012568 128.76963579 1.58639582 139.62738504 1.63687855 150.48512274 C1.66350423 156.23804501 1.68835783 161.990963 1.70907402 167.74390984 C1.72860304 173.15203047 1.75273539 178.56011048 1.78049088 183.96819496 C1.78988118 185.95927572 1.79754927 187.95036541 1.80341911 189.94145966 C1.81164682 192.64741444 1.82591378 195.35326972 1.84178162 198.05918884 C1.84275972 198.85781135 1.84373783 199.65643386 1.84474558 200.47925705 C1.54356249 204.03501558 1.54356249 204.03501558 3 207 C5.44583986 207.15978803 7.86753547 207.25937145 10.31640625 207.31640625 C11.28797668 207.34438293 11.28797668 207.34438293 12.2791748 207.3729248 C14.70680652 207.44140265 17.13467048 207.50143617 19.5625 207.5625 C27.6990625 207.7790625 27.6990625 207.7790625 36 208 C36.33 218.89 36.66 229.78 37 241 C133.03 241.495 133.03 241.495 231 242 C232.98 254.375 232.98 254.375 235 267 C244.43568485 299.81044959 263.28807679 327.41633225 292.97167969 344.82910156 C294.67702413 345.83821586 296.34312201 346.91313908 298 348 C298 348.66 298 349.32 298 350 C286.98729391 353.55499984 275.98364684 357.03894814 264.625 359.3125 C263.9040918 359.45913086 263.18318359 359.60576172 262.44042969 359.75683594 C247.10977617 362.65796093 231.9425539 363.37479087 216.375 363.3125 C215.40444672 363.31034485 214.43389343 363.3081897 213.43392944 363.30596924 C199.10224029 363.25492111 185.0830929 362.89475602 171 360 C169.54134521 359.70996094 169.54134521 359.70996094 168.05322266 359.4140625 C112.72904525 348.10667661 59.96343082 317.8201427 25 273 C24.21109375 272.01644531 23.4221875 271.03289062 22.609375 270.01953125 C4.50394769 247.26139267 -8.78821826 221.53965147 -18 194 C-18.26248535 193.21689453 -18.5249707 192.43378906 -18.79541016 191.62695312 C-21.45309094 183.53384023 -23.46723636 175.34018523 -25.1875 167 C-25.34259033 166.25395508 -25.49768066 165.50791016 -25.6574707 164.73925781 C-28.66026554 149.31127433 -29.37523767 134.05421691 -29.3125 118.375 C-29.31034485 117.40444672 -29.3081897 116.43389343 -29.30596924 115.43392944 C-29.2549334 101.10569102 -28.90758438 87.07814218 -26 73 C-25.80132324 72.01692871 -25.60264648 71.03385742 -25.39794922 70.02099609 C-20.221966 45.13362807 -11.4370873 22.64783945 0 0 Z " fill="#49B6FB" transform="translate(29,138)"/>
<path d="M0 0 C2.67825424 1.89647332 5.21491293 3.8788485 7.734375 5.98046875 C8.50910156 6.5940625 9.28382813 7.20765625 10.08203125 7.83984375 C24.43791362 19.75793477 33.26966352 37.09639846 37.734375 54.98046875 C37.92644531 55.72296875 38.11851562 56.46546875 38.31640625 57.23046875 C41.7001571 79.49365193 36.785838 102.56211922 23.796875 120.98046875 C22.46638624 122.66609765 21.11250607 124.33356259 19.734375 125.98046875 C19.07050781 126.81707031 18.40664063 127.65367187 17.72265625 128.515625 C4.82959046 143.93487373 -15.03259913 154.66283497 -35.06103516 156.79736328 C-59.65663177 158.84018692 -80.72702136 153.4399604 -100.265625 137.98046875 C-101.39871094 137.09294922 -101.39871094 137.09294922 -102.5546875 136.1875 C-115.29580325 125.56990354 -125.35754469 109.20047123 -129.265625 92.98046875 C-129.46800781 92.16578125 -129.67039062 91.35109375 -129.87890625 90.51171875 C-134.95203467 65.93983144 -129.49752806 43.97842235 -116.328125 23.10546875 C-104.27971644 6.11495159 -86.60725803 -6.19830005 -66.265625 -11.01953125 C-65.0590625 -11.36628906 -63.8525 -11.71304687 -62.609375 -12.0703125 C-41.57126894 -17.29559094 -18.01700515 -11.14209529 0 0 Z " fill="#FEFEFE" transform="translate(432.265625,303.01953125)"/>
<path d="M0 0 C60.72 0 121.44 0 184 0 C185.98 12.375 185.98 12.375 188 25 C193.8543914 45.35731555 203.01217482 62.27325546 216 79 C213.43902087 79.63181042 210.87644664 80.25543449 208.3125 80.875 C207.2596582 81.13603516 207.2596582 81.13603516 206.18554688 81.40234375 C192.29843023 84.73525175 178.84358288 85.40593075 164.625 85.375 C163.64478882 85.37412384 162.66457764 85.37324768 161.65466309 85.37234497 C147.07528228 85.32930676 133.16314693 84.73317014 119 81 C118.03336426 80.75862305 117.06672852 80.51724609 116.07080078 80.26855469 C101.67369065 76.62400683 88.28923297 71.60216355 75 65 C74.32146973 64.66887207 73.64293945 64.33774414 72.94384766 63.99658203 C44.33640055 49.93214674 18.00756655 27.37471868 0 1 C0 0.67 0 0.34 0 0 Z " fill="#65BDFB" transform="translate(76,380)"/>
<path d="M0 0 C140.25 0.33 280.5 0.66 425 1 C425 1.33 425 1.66 425 2 C296.3 2 167.6 2 35 2 C35 80.87 35 159.74 35 241 C24.11 241 13.22 241 2 241 C-0.71024588 238.28975412 -0.24064694 236.16641921 -0.25816154 232.48566628 C-0.25233622 231.56181822 -0.24651089 230.63797016 -0.24050903 229.68612671 C-0.24222107 228.71081497 -0.24393311 227.73550323 -0.24569702 226.7306366 C-0.24902403 223.4315169 -0.23793345 220.13259743 -0.22705078 216.83349609 C-0.22643852 214.44031086 -0.2267044 212.04712527 -0.2277813 209.6539402 C-0.2282342 203.22501759 -0.21661352 196.79616891 -0.20256042 190.36726379 C-0.19119965 184.34225218 -0.19063577 178.31725885 -0.18920898 172.29223633 C-0.17869989 154.6531477 -0.15077778 137.01407293 -0.125 119.375 C-0.08375 79.98125 -0.0425 40.5875 0 0 Z " fill="#D4E4EC" transform="translate(30,105)"/>
<path d="M0 0 C20.51042399 16.13653101 36.490721 39.44387068 40.09448242 65.78955078 C42.88720651 94.0012358 36.74280401 121.358557 18.84594727 143.74609375 C1.99686046 163.77052199 -21.24642522 177.80077231 -47.4777832 180.72998047 C-76.60781309 183.23233986 -102.60426039 175.34955367 -125.24536133 156.83447266 C-143.62654951 140.99749248 -157.44758535 117.47763931 -159.69458008 92.92041016 C-160.61255584 78.51074057 -160.29581699 64.68210046 -155.69458008 50.92041016 C-155.48027344 50.27426758 -155.2659668 49.628125 -155.04516602 48.96240234 C-146.89547188 25.20135817 -130.0921618 4.46294419 -107.69458008 -7.07958984 C-106.82446289 -7.56298828 -105.9543457 -8.04638672 -105.05786133 -8.54443359 C-72.37200617 -26.06904625 -29.57758662 -22.32432298 0 0 Z M-125.88989258 26.44775391 C-133.62641489 36.53557221 -139.75682136 48.52548296 -142.69458008 60.92041016 C-143.04133789 62.12697266 -143.3880957 63.33353516 -143.74536133 64.57666016 C-148.68638698 84.47030275 -143.23480161 106.3488137 -133.69458008 123.92041016 C-131.27599169 127.83131903 -128.63785691 131.39195427 -125.69458008 134.92041016 C-124.77418945 136.0825 -124.77418945 136.0825 -123.83520508 137.26806641 C-111.91711405 151.62394878 -94.57865037 160.45569867 -76.69458008 164.92041016 C-75.95208008 165.11248047 -75.20958008 165.30455078 -74.44458008 165.50244141 C-52.15008344 168.89095155 -29.05200745 163.96357102 -10.63208008 150.92041016 C-8.9682187 149.60964303 -7.32112843 148.27720254 -5.69458008 146.92041016 C-4.91985352 146.30681641 -4.14512695 145.69322266 -3.34692383 145.06103516 C9.37971936 134.49552005 19.40949071 118.08998103 23.30541992 101.92041016 C23.50780273 101.10572266 23.71018555 100.29103516 23.91870117 99.45166016 C28.99059208 74.8857668 23.52017935 53.00690106 10.43041992 32.10791016 C-1.20219899 15.67801175 -18.89409466 2.69117929 -38.69458008 -2.07958984 C-39.50926758 -2.28197266 -40.32395508 -2.48435547 -41.16333008 -2.69287109 C-72.96634792 -9.2589436 -104.63065039 1.97314591 -125.88989258 26.44775391 Z " fill="#FFD88E" transform="translate(445.694580078125,294.07958984375)"/>
<path d="M0 0 C-2.54357232 2.54357232 -4.23848191 2.61447872 -7.75 3.3125 C-32.0607117 8.70894369 -56.71494936 22.47684138 -72.546875 42.09765625 C-74.79485485 44.75728846 -76.89875124 46.63627157 -79.6875 48.6875 C-94.7641295 60.54778187 -105.12947627 76.83574501 -111 95 C-111.20882813 95.62890137 -111.41765625 96.25780273 -111.6328125 96.90576172 C-117.03118423 113.82265287 -117.41157417 134.05524826 -112 151 C-111.76893555 151.72880371 -111.53787109 152.45760742 -111.29980469 153.20849609 C-104.2956517 174.83326782 -92.41280509 191.97160909 -74.3671875 206.0546875 C-72.21857073 207.82038247 -70.60516013 209.52706444 -68.875 211.6875 C-51.36657547 232.01380402 -24.73000444 243.74287285 1 249 C0.67 249.66 0.34 250.32 0 251 C-35.50612655 251.62988489 -35.50612655 251.62988489 -48 248 C-48.72815918 247.79068848 -49.45631836 247.58137695 -50.20654297 247.36572266 C-59.71193743 244.5774473 -68.58698553 241.31473719 -77 236 C-77.55719727 235.65485352 -78.11439453 235.30970703 -78.68847656 234.95410156 C-110.19213587 215.32138634 -131.19454521 187.0695704 -140.03515625 150.92578125 C-147.17833437 118.40780026 -139.67451187 85.09715487 -122.5 57.125 C-103.00076103 27.78909137 -74.29495957 8.0628332 -39.9050293 0.52172852 C-27.31333728 -1.93906517 -12.56244683 -2.80979873 0 0 Z " fill="#FEB50A" transform="translate(402,250)"/>
<path d="M0 0 C16.60270667 21.7866636 25.80969831 51.61551216 31.25 78.1875 C31.40114258 78.92170166 31.55228516 79.65590332 31.70800781 80.41235352 C34.48379877 94.88500175 35.35007681 109.21854679 35.31567383 123.92773438 C35.31251859 126.73347081 35.33606785 129.53814301 35.36132812 132.34375 C35.40362916 145.13122865 34.13348593 157.39766086 32 170 C28.70102043 166.72930422 25.59345952 163.39448506 22.5625 159.875 C15.94907692 152.53449879 8.2134812 146.47565413 0 141 C-0.36914349 138.55185509 -0.36914349 138.55185509 -0.36076355 135.40658569 C-0.36488754 134.21744064 -0.36901154 133.02829559 -0.3732605 131.80311584 C-0.36247467 130.49185226 -0.35168884 129.18058868 -0.34057617 127.82958984 C-0.3397303 126.44015013 -0.34020426 125.05070907 -0.34190369 123.66127014 C-0.34276664 119.88246674 -0.32509263 116.10394733 -0.30418181 112.32521009 C-0.28546483 108.37873736 -0.28366852 104.43225856 -0.28010559 100.48574829 C-0.27077044 93.00944121 -0.24613687 85.53326527 -0.21605712 78.05701602 C-0.18255874 69.54687193 -0.16603861 61.03672169 -0.15097082 52.52652812 C-0.11958852 35.01760947 -0.06679958 17.50881859 0 0 Z " fill="#49B5FB" transform="translate(455,129)"/>
<path d="M0 0 C0.97055328 0.00215515 1.94110657 0.0043103 2.94107056 0.00653076 C17.26930898 0.0575666 31.29685782 0.40491562 45.375 3.3125 C46.35807129 3.51117676 47.34114258 3.70985352 48.35400391 3.91455078 C69.69345606 8.35265152 90.20716326 14.85225818 109.375 25.3125 C109.375 25.6425 109.375 25.9725 109.375 26.3125 C37.435 26.3125 -34.505 26.3125 -108.625 26.3125 C-84.93825325 2.62575325 -31.75037707 -0.12704363 0 0 Z " fill="#47B3FB" transform="translate(244.625,10.6875)"/>
<path d="M0 0 C3.71360933 0.61893489 4.67328043 1.59327319 7 4.5 C7.51898193 7.03106689 7.51898193 7.03106689 7.54589844 9.91113281 C7.56561707 10.99195129 7.58533569 12.07276978 7.60565186 13.18634033 C7.60688049 14.34687927 7.60810913 15.50741821 7.609375 16.703125 C7.63417938 18.49251495 7.63417938 18.49251495 7.65948486 20.3180542 C7.7080753 24.1287546 7.72936138 27.9390556 7.75 31.75 C7.77815027 34.33335355 7.80807635 36.9166884 7.83984375 39.5 C7.91383747 45.83326056 7.96541527 52.16640828 8 58.5 C11.95979533 56.29428086 15.91755975 54.08494135 19.875 51.875 C20.98359375 51.25753906 22.0921875 50.64007813 23.234375 50.00390625 C29.21671168 46.66083575 35.11837013 43.25758354 40.8894043 39.55932617 C43 38.5 43 38.5 46.9375 38.4375 C51.61812024 40.06138865 51.61812024 40.06138865 53 42.5 C53.4375 45.9375 53.4375 45.9375 53 49.5 C50.29597656 52.73546354 47.30502545 54.65553528 43.6328125 56.671875 C42.58810791 57.25050293 41.54340332 57.82913086 40.46704102 58.42529297 C39.36416748 59.02744629 38.26129395 59.62959961 37.125 60.25 C34.86556691 61.49681883 32.60645039 62.74421149 30.34765625 63.9921875 C29.25727051 64.59256836 28.16688477 65.19294922 27.04345703 65.81152344 C22.11181725 68.54754307 17.24346149 71.38911093 12.37890625 74.2421875 C10 75.5 10 75.5 8 75.5 C8.01047363 76.05461914 8.02094727 76.60923828 8.03173828 77.18066406 C8.07342004 79.70372959 8.09936438 82.22672253 8.125 84.75 C8.14175781 85.62269531 8.15851563 86.49539063 8.17578125 87.39453125 C8.18222656 88.23886719 8.18867188 89.08320313 8.1953125 89.953125 C8.20578613 90.72817383 8.21625977 91.50322266 8.22705078 92.30175781 C7.96607773 94.82842591 7.36445764 96.36289766 6 98.5 C2.50875983 100.82749345 1.10777749 101.00299316 -3 100.5 C-5.30275556 98.6329009 -6.67823871 97.14352259 -8 94.5 C-8.06950541 92.95976004 -8.08452357 91.41665012 -8.0625 89.875 C-8.05347656 89.05773437 -8.04445313 88.24046875 -8.03515625 87.3984375 C-8.02355469 86.77195312 -8.01195312 86.14546875 -8 85.5 C-8.680625 86.015625 -9.36125 86.53125 -10.0625 87.0625 C-13.87319838 88.92730984 -15.9412538 88.55226753 -20 87.5 C-21.9375 86.375 -21.9375 86.375 -23 84.5 C-23.5625 81.125 -23.5625 81.125 -23 77.5 C-19.8084261 74.06292042 -16.36643545 72.09962935 -12.27734375 69.8515625 C-11.47417725 69.40893066 -10.67101074 68.96629883 -9.84350586 68.51025391 C-9.23514893 68.17687012 -8.62679199 67.84348633 -8 67.5 C-7.99635437 66.71961365 -7.99270874 65.93922729 -7.98895264 65.13519287 C-7.95107426 57.77808729 -7.89422428 50.42148819 -7.81609726 43.06470871 C-7.77659994 39.28254215 -7.74442289 35.50060917 -7.72900391 31.71826172 C-7.7138516 28.06752365 -7.67943304 24.41742766 -7.63169098 20.7669754 C-7.61686216 19.37479485 -7.60895812 17.98252263 -7.60811615 16.59026337 C-7.60574966 14.63916835 -7.57640445 12.68816264 -7.54589844 10.73730469 C-7.53701599 9.6269989 -7.52813354 8.51669312 -7.51898193 7.3727417 C-6.68791576 2.77250747 -4.56904762 0.76150794 0 0 Z " fill="#0998FC" transform="translate(386,308.5)"/>
<path d="M0 0 C0.87506699 -0.00145523 1.75013397 -0.00291046 2.65171814 -0.00440979 C4.49839616 -0.00275223 6.34508819 0.00879313 8.19165039 0.02954102 C11.02094013 0.05852814 13.84835964 0.05014117 16.67773438 0.03710938 C18.47266537 0.04334598 20.26759044 0.05173631 22.0625 0.0625 C23.33287865 0.05809654 23.33287865 0.05809654 24.62892151 0.05360413 C30.51017619 0.14830965 30.51017619 0.14830965 32.68739319 1.81370544 C34.76163009 4.54545257 34.39197619 7.60913532 34.36328125 10.90234375 C34.36615143 11.62345337 34.36902161 12.34456299 34.37197876 13.08752441 C34.37401827 14.6106037 34.36849622 16.13370925 34.35595703 17.65673828 C34.33990018 19.98790053 34.35580785 22.31732917 34.375 24.6484375 C34.37301755 26.12891008 34.36917382 27.60938157 34.36328125 29.08984375 C34.37239029 30.1352533 34.37239029 30.1352533 34.38168335 31.20178223 C34.31138298 36.0397054 34.31138298 36.0397054 32.68739319 38.17848206 C29.63218084 40.51547363 25.76258824 39.94251295 22.0625 39.9296875 C21.18838974 39.93492935 20.31427948 39.9401712 19.41368103 39.9455719 C17.56526756 39.95199433 15.71681323 39.95065223 13.8684082 39.94213867 C11.04108791 39.93363509 8.21579214 39.96237523 5.38867188 39.99414062 C3.59244852 39.9957529 1.79622159 39.9951746 0 39.9921875 C-1.2673423 40.00903847 -1.2673423 40.00903847 -2.56028748 40.02622986 C-6.23292663 39.98266525 -8.41199878 39.88787343 -11.56665039 37.90454102 C-13.55989394 34.63548904 -13.55264725 32.28395025 -13.56640625 28.46484375 C-13.57023315 27.79191284 -13.57406006 27.11898193 -13.57800293 26.42565918 C-13.58071755 25.00690205 -13.57338759 23.58809448 -13.55664062 22.16943359 C-13.535219 20.00244172 -13.55645163 17.83876424 -13.58203125 15.671875 C-13.57938789 14.29035729 -13.57426272 12.90884165 -13.56640625 11.52734375 C-13.56189453 10.27501953 -13.55738281 9.02269531 -13.55273438 7.73242188 C-13.03515625 4.49609375 -13.03515625 4.49609375 -11.56665039 2.08764648 C-7.78202505 -0.29175101 -4.386757 -0.05832765 0 0 Z " fill="#DAE7EC" transform="translate(181.03515625,316.50390625)"/>
<path d="M0 0 C0.87506699 -0.00145523 1.75013397 -0.00291046 2.65171814 -0.00440979 C4.49839616 -0.00275223 6.34508819 0.00879313 8.19165039 0.02954102 C11.02094013 0.05852814 13.84835964 0.05014117 16.67773438 0.03710938 C18.47266537 0.04334598 20.26759044 0.05173631 22.0625 0.0625 C23.33287865 0.05809654 23.33287865 0.05809654 24.62892151 0.05360413 C30.5104436 0.14831396 30.5104436 0.14831396 32.68640137 1.81370544 C34.76092837 4.54371504 34.41231185 7.60848195 34.3984375 10.90234375 C34.40367935 11.62345337 34.4089212 12.34456299 34.4143219 13.08752441 C34.42073905 14.61058261 34.41940899 16.13369039 34.41088867 17.65673828 C34.40237258 19.98820057 34.43114823 22.317217 34.46289062 24.6484375 C34.46450262 26.12890552 34.46392514 27.60937787 34.4609375 29.08984375 C34.47778847 30.1352533 34.47778847 30.1352533 34.49497986 31.20178223 C34.45243985 34.15286657 34.30221804 36.0554677 32.48266602 38.43188477 C28.76831172 40.00183244 25.14966163 39.94388822 21.18359375 39.9296875 C20.33309448 39.93492935 19.48259521 39.9401712 18.60632324 39.9455719 C16.81096487 39.95198566 15.01556444 39.95066345 13.22021484 39.94213867 C10.47417432 39.93362269 7.73021039 39.96240682 4.984375 39.99414062 C3.23828187 39.99575263 1.49218507 39.99517512 -0.25390625 39.9921875 C-1.07379028 40.00342148 -1.89367432 40.01465546 -2.73840332 40.02622986 C-6.35403923 39.98204244 -8.44858617 39.86719724 -11.55078125 37.90454102 C-13.56526359 34.63597716 -13.55261099 32.29401259 -13.56640625 28.46484375 C-13.57023315 27.79191284 -13.57406006 27.11898193 -13.57800293 26.42565918 C-13.58071755 25.00690205 -13.57338759 23.58809448 -13.55664062 22.16943359 C-13.535219 20.00244172 -13.55645163 17.83876424 -13.58203125 15.671875 C-13.57938789 14.29035729 -13.57426272 12.90884165 -13.56640625 11.52734375 C-13.56189453 10.27501953 -13.55738281 9.02269531 -13.55273438 7.73242188 C-13.03515625 4.49609375 -13.03515625 4.49609375 -11.56665039 2.08764648 C-7.78202505 -0.29175101 -4.386757 -0.05832765 0 0 Z " fill="#C6D4DD" transform="translate(117.03515625,316.50390625)"/>
<path d="M0 0 C0.89867798 -0.00145523 1.79735596 -0.00291046 2.7232666 -0.00440979 C4.62299848 -0.00275005 6.52274369 0.00881965 8.42236328 0.02954102 C11.33293679 0.05848621 14.2416884 0.05015392 17.15234375 0.03710938 C18.9974047 0.04334702 20.84245989 0.05173816 22.6875 0.0625 C23.55942993 0.05956436 24.43135986 0.05662872 25.32971191 0.05360413 C26.14065308 0.0662883 26.95159424 0.07897247 27.78710938 0.09204102 C28.49975952 0.097444 29.21240967 0.10284698 29.94665527 0.1084137 C32.4352844 0.61697653 33.32673741 1.48487119 34.84375 3.49609375 C35.12970445 6.05993322 35.24073146 8.3757868 35.20703125 10.9375 C35.20777901 12.02272194 35.20777901 12.02272194 35.20854187 13.12986755 C35.20620389 14.657163 35.19649153 16.18446247 35.17993164 17.71166992 C35.15630068 20.05357148 35.15937691 22.39433735 35.16601562 24.73632812 C35.16043999 26.22005889 35.15333082 27.70378485 35.14453125 29.1875 C35.14589836 30.24065147 35.14589836 30.24065147 35.14729309 31.31507874 C35.07479851 36.26504524 35.07479851 36.26504524 32.84375 38.49609375 C31.02894592 38.75679016 31.02894592 38.75679016 28.80883789 38.77075195 C27.97780045 38.78028397 27.146763 38.78981598 26.2905426 38.79963684 C25.39157761 38.79872543 24.49261261 38.79781403 23.56640625 38.796875 C22.64411728 38.80116013 21.72182831 38.80544525 20.77159119 38.80986023 C18.81884584 38.81560934 16.86607908 38.81609953 14.91333008 38.81176758 C11.92166665 38.80861002 8.93099401 38.83205105 5.93945312 38.85742188 C4.04427208 38.85969501 2.14908838 38.8603983 0.25390625 38.859375 C-0.64303452 38.86858475 -1.53997528 38.87779449 -2.46409607 38.88728333 C-3.29828568 38.88105453 -4.13247528 38.87482574 -4.99194336 38.8684082 C-5.7253746 38.86903763 -6.45880585 38.86966705 -7.21446228 38.87031555 C-9.73712273 38.38414782 -10.62076374 37.52710923 -12.15625 35.49609375 C-12.54443359 32.37329102 -12.54443359 32.37329102 -12.5546875 28.5625 C-12.55899277 27.55098122 -12.55899277 27.55098122 -12.56338501 26.51902771 C-12.56542423 25.09430094 -12.55990413 23.66954608 -12.54736328 22.24487305 C-12.53133045 20.06950871 -12.54720151 17.8960091 -12.56640625 15.72070312 C-12.5644233 14.33463133 -12.56057855 12.94856069 -12.5546875 11.5625 C-12.55130371 10.30381104 -12.54791992 9.04512207 -12.54443359 7.74829102 C-12.15625 4.49609375 -12.15625 4.49609375 -11.20361328 2.08544922 C-7.81182001 -0.54757895 -4.16856542 -0.05370795 0 0 Z " fill="#D9E7EC" transform="translate(180.15625,259.50390625)"/>
<path d="M0 0 C0.83103745 -0.00953201 1.66207489 -0.01906403 2.51829529 -0.02888489 C3.41726028 -0.02797348 4.31622528 -0.02706207 5.24243164 -0.02612305 C6.16472061 -0.03040817 7.08700958 -0.0346933 8.0372467 -0.03910828 C9.98999205 -0.04485738 11.94275881 -0.04534758 13.89550781 -0.04101562 C16.88717124 -0.03785807 19.87784388 -0.06129909 22.86938477 -0.08666992 C24.76456581 -0.08894305 26.65974951 -0.08964635 28.55493164 -0.08862305 C29.45187241 -0.09783279 30.34881317 -0.10704254 31.27293396 -0.11653137 C32.10712357 -0.11030258 32.94131317 -0.10407379 33.80078125 -0.09765625 C34.53421249 -0.09828568 35.26764374 -0.0989151 36.02330017 -0.0995636 C38.54596062 0.38660414 39.42960163 1.24364272 40.96508789 3.2746582 C41.35327148 6.39746094 41.35327148 6.39746094 41.36352539 10.20825195 C41.36639557 10.88259781 41.36926575 11.55694366 41.3722229 12.25172424 C41.37426212 13.67645101 41.36874202 15.10120587 41.35620117 16.52587891 C41.34016834 18.70124324 41.3560394 20.87474285 41.37524414 23.05004883 C41.37326119 24.43612062 41.36941644 25.82219126 41.36352539 27.20825195 C41.3601416 28.46694092 41.35675781 29.72562988 41.35327148 31.02246094 C40.96508789 34.2746582 40.96508789 34.2746582 40.01245117 36.68530273 C36.6206579 39.3183309 32.97740331 38.82445991 28.80883789 38.77075195 C27.91015991 38.77220718 27.01148193 38.77366241 26.08557129 38.77516174 C24.18583941 38.773502 22.2860942 38.76193231 20.38647461 38.74121094 C17.4759011 38.71226574 14.56714949 38.72059804 11.65649414 38.73364258 C9.81143319 38.72740493 7.966378 38.71901379 6.12133789 38.70825195 C5.24940796 38.71118759 4.37747803 38.71412323 3.47912598 38.71714783 C2.66818481 38.70446365 1.85724365 38.69177948 1.02172852 38.67871094 C0.30907837 38.67330795 -0.40357178 38.66790497 -1.13781738 38.66233826 C-3.62644651 38.15377542 -4.51789952 37.28588076 -6.03491211 35.2746582 C-6.32086656 32.71081874 -6.43189357 30.39496515 -6.39819336 27.83325195 C-6.39869186 27.10977066 -6.39919037 26.38628937 -6.39970398 25.6408844 C-6.397366 24.11358896 -6.38765364 22.58628948 -6.37109375 21.05908203 C-6.34746279 18.71718047 -6.35053902 16.37641461 -6.35717773 14.03442383 C-6.35160209 12.55069306 -6.34449293 11.0669671 -6.33569336 9.58325195 C-6.33660477 8.88115097 -6.33751617 8.17904999 -6.3384552 7.45567322 C-6.26044972 2.12941943 -5.51182133 0.03466268 0 0 Z " fill="#75D57A" transform="translate(303.034912109375,202.725341796875)"/>
<path d="M0 0 C1.25128441 -0.00934319 1.25128441 -0.00934319 2.52784729 -0.01887512 C3.87325844 -0.0050605 3.87325844 -0.0050605 5.24584961 0.0090332 C6.63071815 0.00828545 6.63071815 0.00828545 8.04356384 0.00752258 C9.99455926 0.00986266 11.94555771 0.01958728 13.89648438 0.03613281 C16.89016564 0.05975112 19.88295809 0.05669013 22.87670898 0.05004883 C24.77059452 0.05562464 26.6644763 0.06273392 28.55834961 0.0715332 C29.9067971 0.07016609 29.9067971 0.07016609 31.28248596 0.06877136 C32.11352341 0.07830338 32.94456085 0.08783539 33.80078125 0.09765625 C34.5334169 0.10226364 35.26605255 0.10687103 36.02088928 0.11161804 C37.83569336 0.37231445 37.83569336 0.37231445 39.83569336 2.37231445 C40.04745056 4.8462032 40.13968807 7.2054257 40.13647461 9.6809082 C40.14075974 10.40343277 40.14504486 11.12595734 40.14945984 11.87037659 C40.15520573 13.39941357 40.15570148 14.92847789 40.15136719 16.45751953 C40.14821007 18.79743119 40.17165094 21.13607512 40.19702148 23.47583008 C40.19929475 24.96085452 40.19999785 26.44588237 40.19897461 27.9309082 C40.20818436 28.63098495 40.2173941 29.33106171 40.22688293 30.05235291 C40.18056978 34.91508474 40.18056978 34.91508474 38.56596375 37.05569458 C36.46318656 38.65576717 35.39911046 38.75650312 32.77905273 38.77636719 C31.56264099 38.79539345 31.56264099 38.79539345 30.32165527 38.81480408 C29.44972534 38.81186844 28.57779541 38.8089328 27.67944336 38.8059082 C26.78076538 38.81115005 25.8820874 38.81639191 24.95617676 38.8217926 C23.05648838 38.82821493 21.15676024 38.82687308 19.25708008 38.81835938 C16.34636876 38.80984568 13.43761712 38.83861291 10.52709961 38.87036133 C8.68204812 38.8719733 6.83699314 38.8713959 4.99194336 38.8684082 C3.68404846 38.88525917 3.68404846 38.88525917 2.34973145 38.90245056 C-3.56960744 38.83397577 -3.56960744 38.83397577 -6.21166992 36.78295898 C-7.49933844 33.52451744 -7.55332298 30.81035732 -7.56274414 27.3059082 C-7.56561432 26.63060562 -7.5684845 25.95530304 -7.57144165 25.25953674 C-7.57347735 23.83659015 -7.56798196 22.41361526 -7.55541992 20.99072266 C-7.53933201 18.81324826 -7.55529592 16.63762265 -7.57446289 14.46020508 C-7.57248086 13.07543536 -7.56863801 11.69066679 -7.56274414 10.3059082 C-7.55936035 9.04834717 -7.55597656 7.79078613 -7.55249023 6.49511719 C-7.16430664 3.37231445 -7.16430664 3.37231445 -5.90031433 1.70040894 C-3.76116525 0.0639 -2.67136191 -0.00229254 0 0 Z " fill="#75D57A" transform="translate(175.164306640625,202.627685546875)"/>
<path d="M0 0 C0.85428589 -0.00953201 1.70857178 -0.01906403 2.58874512 -0.02888489 C3.51272095 -0.02797348 4.43669678 -0.02706207 5.38867188 -0.02612305 C6.33552856 -0.03040817 7.28238525 -0.0346933 8.25793457 -0.03910828 C10.26195475 -0.04485711 12.26599579 -0.04534778 14.27001953 -0.04101562 C17.34508639 -0.03785448 20.41919274 -0.06131207 23.49414062 -0.08666992 C25.43814982 -0.08894264 27.38216162 -0.08964654 29.32617188 -0.08862305 C30.25014771 -0.09783279 31.17412354 -0.10704254 32.12609863 -0.11653137 C32.98038452 -0.11030258 33.83467041 -0.10407379 34.71484375 -0.09765625 C35.4682605 -0.09828568 36.22167725 -0.0989151 36.9979248 -0.0995636 C38.85742188 0.2746582 38.85742188 0.2746582 40.85742188 3.2746582 C41.26755571 7.68307991 41.22902613 12.10073703 41.22802734 16.52587891 C41.23240025 18.70139874 41.26872611 20.87488797 41.30664062 23.05004883 C41.31250931 24.43610962 41.31647836 25.82218002 41.31835938 27.20825195 C41.32657715 28.46694092 41.33479492 29.72562988 41.34326172 31.02246094 C40.85742188 34.2746582 40.85742188 34.2746582 39.39331055 36.68530273 C35.6049428 39.05964317 32.2099815 38.82909235 27.82226562 38.77075195 C26.94719864 38.77220718 26.07213165 38.77366241 25.17054749 38.77516174 C23.32386947 38.77350418 21.47717744 38.76195883 19.63061523 38.74121094 C16.8013255 38.71222381 13.97390599 38.72061078 11.14453125 38.73364258 C9.34960026 38.72740597 7.55467518 38.71901564 5.75976562 38.70825195 C4.48938698 38.71265541 4.48938698 38.71265541 3.19334412 38.71714783 C-2.68729305 38.62245224 -2.68729305 38.62245224 -4.86611938 36.95803833 C-6.94504548 34.21637284 -6.54929559 31.13504558 -6.50585938 27.83325195 C-6.50635788 27.10977066 -6.50685638 26.38628937 -6.50737 25.6408844 C-6.50503202 24.11358896 -6.49531965 22.58628948 -6.47875977 21.05908203 C-6.4551288 18.71718047 -6.45820504 16.37641461 -6.46484375 14.03442383 C-6.45926811 12.55069306 -6.45215895 11.0669671 -6.44335938 9.58325195 C-6.44427078 8.88115097 -6.44518219 8.17904999 -6.44612122 7.45567322 C-6.36684514 2.0426628 -5.56559342 0.03403544 0 0 Z " fill="#D9E7EC" transform="translate(367.142578125,145.725341796875)"/>
<path d="M0 0 C1.13012512 0.00094414 1.13012512 0.00094414 2.28308105 0.00190735 C3.13736694 -0.00432144 3.99165283 -0.01055023 4.87182617 -0.01696777 C5.795802 -0.00775803 6.71977783 0.00145172 7.67175293 0.01094055 C8.61860962 0.01044205 9.56546631 0.00994354 10.54101562 0.00942993 C12.54506527 0.01177285 14.54911771 0.02151412 16.55310059 0.03804016 C19.62807408 0.06162647 22.70218079 0.05860358 25.77722168 0.05195618 C27.72123729 0.05753288 29.66524923 0.0646427 31.60925293 0.07344055 C32.99521667 0.07207344 32.99521667 0.07207344 34.40917969 0.07067871 C35.26346558 0.08021072 36.11775146 0.08974274 36.9979248 0.0995636 C38.12804993 0.10647469 38.12804993 0.10647469 39.28100586 0.11352539 C41.14050293 0.3742218 41.14050293 0.3742218 43.14050293 2.3742218 C43.35226013 4.84811055 43.44449764 7.20733305 43.44128418 9.68281555 C43.44556931 10.40534012 43.44985443 11.12786469 43.45426941 11.87228394 C43.4600153 13.40132092 43.46051105 14.93038524 43.45617676 16.45942688 C43.45301964 18.79933854 43.47646051 21.13798247 43.50183105 23.47773743 C43.50410432 24.96276187 43.50480742 26.44778972 43.50378418 27.93281555 C43.51299393 28.6328923 43.52220367 29.33296906 43.5316925 30.05426025 C43.4853561 34.91943313 43.4853561 34.91943313 41.86404419 37.05760193 C38.80731269 39.39265101 34.9385193 38.82064195 31.23815918 38.80781555 C30.36404892 38.8130574 29.48993866 38.81829926 28.58934021 38.82369995 C26.74092674 38.83012238 24.89247241 38.82878028 23.04406738 38.82026672 C20.21674709 38.81176314 17.39145132 38.84050328 14.56433105 38.87226868 C12.7681077 38.87388095 10.97188077 38.87330266 9.17565918 38.87031555 C7.90831688 38.88716652 7.90831688 38.88716652 6.6153717 38.90435791 C2.94276986 38.86079374 0.76182291 38.76363098 -2.39538574 36.78486633 C-4.39270727 33.49629658 -4.34548239 31.14430655 -4.32043457 27.30781555 C-4.31951813 26.63251297 -4.31860168 25.95721039 -4.31765747 25.26144409 C-4.31163234 23.83843426 -4.29591864 22.41543647 -4.27111816 20.99263 C-4.23455742 18.81531557 -4.23009932 16.63970213 -4.23059082 14.46211243 C-4.13383411 0.8319297 -4.13383411 0.8319297 0 0 Z " fill="#76D57B" transform="translate(171.8594970703125,145.6257781982422)"/>
<path d="M0 0 C1.13012512 0.00094414 1.13012512 0.00094414 2.28308105 0.00190735 C3.13736694 -0.00432144 3.99165283 -0.01055023 4.87182617 -0.01696777 C5.795802 -0.00775803 6.71977783 0.00145172 7.67175293 0.01094055 C8.61860962 0.01044205 9.56546631 0.00994354 10.54101562 0.00942993 C12.54506527 0.01177285 14.54911771 0.02151412 16.55310059 0.03804016 C19.62807408 0.06162647 22.70218079 0.05860358 25.77722168 0.05195618 C27.72123729 0.05753288 29.66524923 0.0646427 31.60925293 0.07344055 C32.99521667 0.07207344 32.99521667 0.07207344 34.40917969 0.07067871 C35.26346558 0.08021072 36.11775146 0.08974274 36.9979248 0.0995636 C38.12804993 0.10647469 38.12804993 0.10647469 39.28100586 0.11352539 C41.14050293 0.3742218 41.14050293 0.3742218 43.14050293 2.3742218 C43.35226013 4.84811055 43.44449764 7.20733305 43.44128418 9.68281555 C43.44556931 10.40534012 43.44985443 11.12786469 43.45426941 11.87228394 C43.4600153 13.40132092 43.46051105 14.93038524 43.45617676 16.45942688 C43.45301964 18.79933854 43.47646051 21.13798247 43.50183105 23.47773743 C43.50410432 24.96276187 43.50480742 26.44778972 43.50378418 27.93281555 C43.51299393 28.6328923 43.52220367 29.33296906 43.5316925 30.05426025 C43.4853561 34.91943313 43.4853561 34.91943313 41.86404419 37.05760193 C38.80731269 39.39265101 34.9385193 38.82064195 31.23815918 38.80781555 C30.36404892 38.8130574 29.48993866 38.81829926 28.58934021 38.82369995 C26.74092674 38.83012238 24.89247241 38.82878028 23.04406738 38.82026672 C20.21674709 38.81176314 17.39145132 38.84050328 14.56433105 38.87226868 C12.7681077 38.87388095 10.97188077 38.87330266 9.17565918 38.87031555 C7.90831688 38.88716652 7.90831688 38.88716652 6.6153717 38.90435791 C2.94276986 38.86079374 0.76182291 38.76363098 -2.39538574 36.78486633 C-4.39270727 33.49629658 -4.34548239 31.14430655 -4.32043457 27.30781555 C-4.31951813 26.63251297 -4.31860168 25.95721039 -4.31765747 25.26144409 C-4.31163234 23.83843426 -4.29591864 22.41543647 -4.27111816 20.99263 C-4.23455742 18.81531557 -4.23009932 16.63970213 -4.23059082 14.46211243 C-4.13383411 0.8319297 -4.13383411 0.8319297 0 0 Z " fill="#04C53E" transform="translate(107.8594970703125,145.6257781982422)"/>
<path d="M0 0 C0.83103745 -0.00953201 1.66207489 -0.01906403 2.51829529 -0.02888489 C3.41726028 -0.02797348 4.31622528 -0.02706207 5.24243164 -0.02612305 C6.16472061 -0.03040817 7.08700958 -0.0346933 8.0372467 -0.03910828 C9.98999205 -0.04485738 11.94275881 -0.04534758 13.89550781 -0.04101562 C16.88717124 -0.03785807 19.87784388 -0.06129909 22.86938477 -0.08666992 C24.76456581 -0.08894305 26.65974951 -0.08964635 28.55493164 -0.08862305 C29.45187241 -0.09783279 30.34881317 -0.10704254 31.27293396 -0.11653137 C32.10712357 -0.11030258 32.94131317 -0.10407379 33.80078125 -0.09765625 C34.53421249 -0.09828568 35.26764374 -0.0989151 36.02330017 -0.0995636 C38.54595785 0.3866036 39.42887459 1.24427425 40.96508789 3.2746582 C41.36914062 6.39746094 41.36914062 6.39746094 41.39868164 10.20825195 C41.40392349 10.88259781 41.40916534 11.55694366 41.41456604 12.25172424 C41.42098228 13.67642848 41.41965428 15.10118571 41.41113281 16.52587891 C41.40262929 18.70156642 41.43137131 20.87462123 41.46313477 23.05004883 C41.46474716 24.43611575 41.46416851 25.82218731 41.46118164 27.20825195 C41.46396118 29.0962854 41.46396118 29.0962854 41.46679688 31.02246094 C40.96508789 34.2746582 40.96508789 34.2746582 39.4987793 36.68530273 C35.71210728 39.06063852 32.31660775 38.82907853 27.92993164 38.77075195 C27.05486465 38.77220718 26.17979767 38.77366241 25.2782135 38.77516174 C23.43153548 38.77350418 21.58484345 38.76195883 19.73828125 38.74121094 C16.90899151 38.71222381 14.081572 38.72061078 11.25219727 38.73364258 C9.45726627 38.72740597 7.6623412 38.71901564 5.86743164 38.70825195 C4.59705299 38.71265541 4.59705299 38.71265541 3.30101013 38.71714783 C-2.57962704 38.62245224 -2.57962704 38.62245224 -4.75845337 36.95803833 C-6.83737947 34.21637284 -6.44162958 31.13504558 -6.39819336 27.83325195 C-6.39869186 27.10977066 -6.39919037 26.38628937 -6.39970398 25.6408844 C-6.397366 24.11358896 -6.38765364 22.58628948 -6.37109375 21.05908203 C-6.34746279 18.71718047 -6.35053902 16.37641461 -6.35717773 14.03442383 C-6.35160209 12.55069306 -6.34449293 11.0669671 -6.33569336 9.58325195 C-6.33660477 8.88115097 -6.33751617 8.17904999 -6.3384552 7.45567322 C-6.26044972 2.12941943 -5.51182133 0.03466268 0 0 Z " fill="#D9E7EC" transform="translate(303.034912109375,145.725341796875)"/>
<path d="M0 0 C1.21641174 -0.01418472 1.21641174 -0.01418472 2.45739746 -0.02865601 C3.76529236 -0.01954697 3.76529236 -0.01954697 5.09960938 -0.01025391 C6.44762634 -0.01455917 6.44762634 -0.01455917 7.82287598 -0.01895142 C9.72258128 -0.02099256 11.62230758 -0.01545919 13.52197266 -0.00292969 C16.43244347 0.01312339 19.34152558 -0.00277653 22.25195312 -0.02197266 C24.09700828 -0.01999023 25.94206257 -0.01614658 27.78710938 -0.01025391 C28.65903931 -0.0163266 29.53096924 -0.02239929 30.42932129 -0.02865601 C31.24026245 -0.01919952 32.05120361 -0.00974304 32.88671875 0 C33.5993689 0.00238678 34.31201904 0.00477356 35.04626465 0.00723267 C37.53559628 0.50710923 38.42368392 1.38186455 39.94335938 3.38818359 C40.33154297 6.61865234 40.33154297 6.61865234 40.34179688 10.57568359 C40.34466705 11.27459717 40.34753723 11.97351074 40.35049438 12.69360352 C40.35253363 14.16960461 40.3470134 15.64563281 40.33447266 17.12158203 C40.31841517 19.38033497 40.33432408 21.63729877 40.35351562 23.89599609 C40.35153317 25.33089587 40.34768943 26.76579454 40.34179688 28.20068359 C40.33841309 29.50650391 40.3350293 30.81232422 40.33154297 32.15771484 C39.94335938 35.38818359 39.94335938 35.38818359 38.67263794 37.06582642 C36.56746694 38.67562373 35.51383744 38.76756855 32.88671875 38.77636719 C31.67030701 38.79055191 31.67030701 38.79055191 30.42932129 38.80502319 C29.55739136 38.7989505 28.68546143 38.79287781 27.78710938 38.78662109 C26.43909241 38.79092636 26.43909241 38.79092636 25.06384277 38.7953186 C23.16413747 38.79735975 21.26441117 38.79182638 19.36474609 38.77929688 C16.45427528 38.7632438 13.54519317 38.77914372 10.63476562 38.79833984 C8.78971047 38.79635742 6.94465618 38.79251376 5.09960938 38.78662109 C3.79171448 38.79573013 3.79171448 38.79573013 2.45739746 38.80502319 C1.24098572 38.79083847 1.24098572 38.79083847 0 38.77636719 C-1.06897522 38.77278702 -1.06897522 38.77278702 -2.1595459 38.76913452 C-4.64887753 38.26925796 -5.53696517 37.39450264 -7.05664062 35.38818359 C-7.44482422 32.15771484 -7.44482422 32.15771484 -7.45507812 28.20068359 C-7.4579483 27.50177002 -7.46081848 26.80285645 -7.46377563 26.08276367 C-7.46581488 24.60676258 -7.46029465 23.13073438 -7.44775391 21.65478516 C-7.43169642 19.39603221 -7.44760533 17.13906842 -7.46679688 14.88037109 C-7.46481442 13.44547131 -7.46097068 12.01057264 -7.45507812 10.57568359 C-7.45169434 9.26986328 -7.44831055 7.96404297 -7.44482422 6.61865234 C-7.05664062 3.38818359 -7.05664062 3.38818359 -5.78591919 1.71054077 C-3.68074819 0.10074346 -2.62711869 0.00879864 0 0 Z " fill="#C5D3DD" transform="translate(111.056640625,259.61181640625)"/>
<path d="M0 0 C1.21641174 -0.01418472 1.21641174 -0.01418472 2.45739746 -0.02865601 C3.76529236 -0.01954697 3.76529236 -0.01954697 5.09960938 -0.01025391 C6.44762634 -0.01455917 6.44762634 -0.01455917 7.82287598 -0.01895142 C9.72258128 -0.02099256 11.62230758 -0.01545919 13.52197266 -0.00292969 C16.43244347 0.01312339 19.34152558 -0.00277653 22.25195312 -0.02197266 C24.09700828 -0.01999023 25.94206257 -0.01614658 27.78710938 -0.01025391 C28.65903931 -0.0163266 29.53096924 -0.02239929 30.42932129 -0.02865601 C31.24026245 -0.01919952 32.05120361 -0.00974304 32.88671875 0 C33.5993689 0.00238678 34.31201904 0.00477356 35.04626465 0.00723267 C37.53559628 0.50710923 38.42368392 1.38186455 39.94335938 3.38818359 C40.33154297 6.61865234 40.33154297 6.61865234 40.34179688 10.57568359 C40.34466705 11.27459717 40.34753723 11.97351074 40.35049438 12.69360352 C40.35253363 14.16960461 40.3470134 15.64563281 40.33447266 17.12158203 C40.31841517 19.38033497 40.33432408 21.63729877 40.35351562 23.89599609 C40.35153317 25.33089587 40.34768943 26.76579454 40.34179688 28.20068359 C40.33841309 29.50650391 40.3350293 30.81232422 40.33154297 32.15771484 C39.94335938 35.38818359 39.94335938 35.38818359 38.67263794 37.06582642 C36.56746694 38.67562373 35.51383744 38.76756855 32.88671875 38.77636719 C31.67030701 38.79055191 31.67030701 38.79055191 30.42932129 38.80502319 C29.55739136 38.7989505 28.68546143 38.79287781 27.78710938 38.78662109 C26.43909241 38.79092636 26.43909241 38.79092636 25.06384277 38.7953186 C23.16413747 38.79735975 21.26441117 38.79182638 19.36474609 38.77929688 C16.45427528 38.7632438 13.54519317 38.77914372 10.63476562 38.79833984 C8.78971047 38.79635742 6.94465618 38.79251376 5.09960938 38.78662109 C3.79171448 38.79573013 3.79171448 38.79573013 2.45739746 38.80502319 C1.24098572 38.79083847 1.24098572 38.79083847 0 38.77636719 C-1.06897522 38.77278702 -1.06897522 38.77278702 -2.1595459 38.76913452 C-4.64887753 38.26925796 -5.53696517 37.39450264 -7.05664062 35.38818359 C-7.44482422 32.15771484 -7.44482422 32.15771484 -7.45507812 28.20068359 C-7.4579483 27.50177002 -7.46081848 26.80285645 -7.46377563 26.08276367 C-7.46581488 24.60676258 -7.46029465 23.13073438 -7.44775391 21.65478516 C-7.43169642 19.39603221 -7.44760533 17.13906842 -7.46679688 14.88037109 C-7.46481442 13.44547131 -7.46097068 12.01057264 -7.45507812 10.57568359 C-7.45169434 9.26986328 -7.44831055 7.96404297 -7.44482422 6.61865234 C-7.05664062 3.38818359 -7.05664062 3.38818359 -5.78591919 1.71054077 C-3.68074819 0.10074346 -2.62711869 0.00879864 0 0 Z " fill="#C5D3DD" transform="translate(111.056640625,202.61181640625)"/>
<path d="M0 0 C1.20849609 0.00322266 2.41699219 0.00644531 3.66210938 0.00976562 C4.92474609 0.01814453 6.18738281 0.02652344 7.48828125 0.03515625 C9.39963867 0.04192383 9.39963867 0.04192383 11.34960938 0.04882812 C14.50004689 0.06062752 17.65039074 0.07709028 20.80078125 0.09765625 C19.81078125 0.75765625 18.82078125 1.41765625 17.80078125 2.09765625 C14.93268278 3.86981381 14.93268278 3.86981381 12.80078125 7.09765625 C12.03764956 11.3405117 12.10050608 15.54245984 12.13671875 19.84375 C12.13193512 21.08761978 12.12715149 22.33148956 12.1222229 23.61305237 C12.1179532 26.9139084 12.13803513 30.21358305 12.16601562 33.51428223 C12.17576658 35.53212113 12.16605983 37.54887146 12.14892578 39.56665039 C12.11799599 43.45119463 12.12179093 47.33413816 12.13671875 51.21875 C12.12153702 53.01897865 12.12153702 53.01897865 12.10604858 54.85557556 C12.09694379 61.89571175 12.09694379 61.89571175 15.34228516 67.90258789 C16.15358887 68.62696045 16.96489258 69.35133301 17.80078125 70.09765625 C13.38445948 70.24275376 8.96874932 70.33166443 4.55078125 70.41015625 C3.29652344 70.45205078 2.04226562 70.49394531 0.75 70.53710938 C-1.05791016 70.5612793 -1.05791016 70.5612793 -2.90234375 70.5859375 C-4.56765137 70.62521362 -4.56765137 70.62521362 -6.26660156 70.6652832 C-9.19921875 70.09765625 -9.19921875 70.09765625 -11.35015869 67.93119812 C-13.47087149 64.68136938 -13.70483669 63.03409376 -13.71679688 59.19335938 C-13.72940552 58.02865112 -13.74201416 56.86394287 -13.75500488 55.66394043 C-13.74690796 54.41487915 -13.73881104 53.16581787 -13.73046875 51.87890625 C-13.73429565 50.58827271 -13.73812256 49.29763916 -13.74206543 47.96789551 C-13.74794995 45.24093396 -13.73943251 42.51449792 -13.72070312 39.78759766 C-13.69791277 36.30036843 -13.71104168 32.81437067 -13.73499298 29.32718658 C-13.75296166 25.99016231 -13.74036359 22.65346547 -13.73046875 19.31640625 C-13.73856567 18.06734497 -13.7466626 16.81828369 -13.75500488 15.53137207 C-13.74239624 14.36666382 -13.7297876 13.20195557 -13.71679688 12.00195312 C-13.7136145 10.98000854 -13.71043213 9.95806396 -13.70715332 8.90515137 C-13.06212272 5.33988848 -11.71740295 3.66062719 -9.19921875 1.09765625 C-5.90187229 -0.00145924 -3.4696313 -0.01628935 0 0 Z " fill="#0055CA" transform="translate(38.19921875,35.90234375)"/>
<path d="M0 0 C1.21641174 -0.01418472 1.21641174 -0.01418472 2.45739746 -0.02865601 C3.76529236 -0.01954697 3.76529236 -0.01954697 5.09960938 -0.01025391 C6.44762634 -0.01455917 6.44762634 -0.01455917 7.82287598 -0.01895142 C9.72258128 -0.02099256 11.62230758 -0.01545919 13.52197266 -0.00292969 C16.43244347 0.01312339 19.34152558 -0.00277653 22.25195312 -0.02197266 C24.09700828 -0.01999023 25.94206257 -0.01614658 27.78710938 -0.01025391 C28.65903931 -0.0163266 29.53096924 -0.02239929 30.42932129 -0.02865601 C31.24026245 -0.01919952 32.05120361 -0.00974304 32.88671875 0 C33.5993689 0.00238678 34.31201904 0.00477356 35.04626465 0.00723267 C37.53556861 0.50710367 38.4229796 1.38250015 39.94335938 3.38818359 C40.34741211 6.61865234 40.34741211 6.61865234 40.37695312 10.57568359 C40.38219498 11.27459717 40.38743683 11.97351074 40.39283752 12.69360352 C40.39925384 14.16958285 40.39792568 15.64561335 40.3894043 17.12158203 C40.3808878 19.38064459 40.40966476 21.63718304 40.44140625 23.89599609 C40.44301824 25.33089117 40.44244076 26.76579072 40.43945312 28.20068359 C40.44223267 30.15941406 40.44223267 30.15941406 40.44506836 32.15771484 C39.94335938 35.38818359 39.94335938 35.38818359 38.47705078 37.3125 C34.64306077 38.94022789 31.03324517 38.81626989 26.90820312 38.78662109 C25.59560265 38.79092636 25.59560265 38.79092636 24.25648499 38.7953186 C22.4098343 38.79735707 20.56316192 38.79184243 18.71655273 38.77929688 C15.88736861 38.76322058 13.05960887 38.77916257 10.23046875 38.79833984 C8.43554372 38.79635775 6.64061957 38.79251478 4.84570312 38.78662109 C3.57532448 38.79573013 3.57532448 38.79573013 2.27928162 38.80502319 C-3.60568269 38.73437247 -3.60568269 38.73437247 -5.77919006 37.06582642 C-7.87649612 34.31148855 -7.44628347 31.59458315 -7.45507812 28.20068359 C-7.4579483 27.50177002 -7.46081848 26.80285645 -7.46377563 26.08276367 C-7.46581488 24.60676258 -7.46029465 23.13073438 -7.44775391 21.65478516 C-7.43169642 19.39603221 -7.44760533 17.13906842 -7.46679688 14.88037109 C-7.46481442 13.44547131 -7.46097068 12.01057264 -7.45507812 10.57568359 C-7.45169434 9.26986328 -7.44831055 7.96404297 -7.44482422 6.61865234 C-7.05664062 3.38818359 -7.05664062 3.38818359 -5.78591919 1.71054077 C-3.68074819 0.10074346 -2.62711869 0.00879864 0 0 Z " fill="#D9E7EC" transform="translate(368.056640625,202.61181640625)"/>
<path d="M0 0 C1.3147229 -0.00287018 1.3147229 -0.00287018 2.65600586 -0.00579834 C4.50862922 -0.00715899 6.36126216 -0.00347094 8.21386719 0.00488281 C11.05164989 0.01558408 13.88879952 0.00498352 16.7265625 -0.0078125 C18.52604307 -0.00649088 20.32552324 -0.00392845 22.125 0 C22.97505615 -0.00404846 23.8251123 -0.00809692 24.70092773 -0.01226807 C30.71759751 0.03569001 30.71759751 0.03569001 34.0625 2.265625 C34.35451724 4.86678056 34.4587335 7.22653652 34.42578125 9.828125 C34.42652901 10.94876343 34.42652901 10.94876343 34.42729187 12.09204102 C34.42495023 13.67239032 34.41521631 15.25274327 34.39868164 16.83300781 C34.37509178 19.25619751 34.3781191 21.67828722 34.38476562 24.1015625 C34.37918886 25.63542325 34.37207899 27.16927935 34.36328125 28.703125 C34.36464836 29.79379272 34.36464836 29.79379272 34.36604309 30.90649414 C34.29352983 36.03459517 34.29352983 36.03459517 32.0625 38.265625 C30.2409668 38.51959229 30.2409668 38.51959229 28.01171875 38.52441406 C27.17745361 38.53071838 26.34318848 38.53702271 25.48364258 38.54351807 C24.58154053 38.5394696 23.67943848 38.53542114 22.75 38.53125 C21.36300903 38.53412018 21.36300903 38.53412018 19.94799805 38.53704834 C17.99104541 38.53841066 16.03408376 38.53471096 14.07714844 38.52636719 C11.0746641 38.51566834 8.07277813 38.52626091 5.0703125 38.5390625 C3.17187367 38.53774091 1.27343522 38.53517854 -0.625 38.53125 C-1.52710205 38.53529846 -2.4292041 38.53934692 -3.35864258 38.54351807 C-4.61004028 38.53406158 -4.61004028 38.53406158 -5.88671875 38.52441406 C-6.62237061 38.52282288 -7.35802246 38.52123169 -8.1159668 38.51959229 C-9.9375 38.265625 -9.9375 38.265625 -11.9375 36.265625 C-12.14928882 33.7083456 -12.24148869 31.26199186 -12.23828125 28.703125 C-12.24256638 27.95603271 -12.2468515 27.20894043 -12.25126648 26.43920898 C-12.25701213 24.85889704 -12.2575083 23.27855864 -12.25317383 21.69824219 C-12.25001215 19.27493412 -12.27347408 16.85284465 -12.29882812 14.4296875 C-12.30110087 12.89583488 -12.30180473 11.36197896 -12.30078125 9.828125 C-12.309991 9.10101318 -12.31920074 8.37390137 -12.32868958 7.62475586 C-12.30981445 5.58203125 -12.30981445 5.58203125 -11.9375 2.265625 C-7.98814486 -0.36727843 -4.58244248 -0.02182426 0 0 Z " fill="#D9E7EC" transform="translate(244.9375,259.734375)"/>
<path d="M0 0 C0.83426514 -0.00630432 1.66853027 -0.01260864 2.52807617 -0.019104 C3.43017822 -0.01505554 4.33228027 -0.01100708 5.26171875 -0.00683594 C6.64870972 -0.00970612 6.64870972 -0.00970612 8.0637207 -0.01263428 C10.02067334 -0.0139966 11.97763499 -0.0102969 13.93457031 -0.00195312 C16.93705465 0.00874572 19.93894062 -0.00184685 22.94140625 -0.01464844 C24.83984508 -0.01332685 26.73828353 -0.01076448 28.63671875 -0.00683594 C29.5388208 -0.0108844 30.44092285 -0.01493286 31.37036133 -0.019104 C32.62175903 -0.00964752 32.62175903 -0.00964752 33.8984375 0 C34.63408936 0.00159119 35.36974121 0.00318237 36.12768555 0.00482178 C37.94921875 0.25878906 37.94921875 0.25878906 39.94921875 2.25878906 C40.16100757 4.81606846 40.25320744 7.2624222 40.25 9.82128906 C40.25428513 10.56838135 40.25857025 11.31547363 40.26298523 12.08520508 C40.26873088 13.66551703 40.26922705 15.24585543 40.26489258 16.82617188 C40.2617309 19.24947994 40.28519283 21.67156941 40.31054688 24.09472656 C40.31281962 25.62857918 40.31352348 27.1624351 40.3125 28.69628906 C40.32170975 29.42340088 40.33091949 30.1505127 40.34040833 30.8996582 C40.3215332 32.94238281 40.3215332 32.94238281 39.94921875 36.25878906 C35.99986361 38.89169249 32.59416123 38.54623832 28.01171875 38.52441406 C26.69699585 38.52728424 26.69699585 38.52728424 25.35571289 38.5302124 C23.50308953 38.53157305 21.65045659 38.527885 19.79785156 38.51953125 C16.96006886 38.50882998 14.12291923 38.51943054 11.28515625 38.53222656 C9.48567568 38.53090495 7.68619551 38.52834251 5.88671875 38.52441406 C5.0366626 38.52846252 4.18660645 38.53251099 3.31079102 38.53668213 C-2.70587876 38.48872406 -2.70587876 38.48872406 -6.05078125 36.25878906 C-6.34279849 33.6576335 -6.44701475 31.29787754 -6.4140625 28.69628906 C-6.414561 27.94919678 -6.41505951 27.20210449 -6.41557312 26.43237305 C-6.41323148 24.85202374 -6.40349756 23.27167079 -6.38696289 21.69140625 C-6.36337303 19.26821655 -6.36640035 16.84612684 -6.37304688 14.42285156 C-6.36747011 12.88899082 -6.36036024 11.35513472 -6.3515625 9.82128906 C-6.35247391 9.09417725 -6.35338531 8.36706543 -6.35432434 7.61791992 C-6.27795645 2.21722153 -5.62709127 0.01217118 0 0 Z " fill="#74D579" transform="translate(239.05078125,202.7412109375)"/>
<path d="M0 0 C0.83426514 -0.00630432 1.66853027 -0.01260864 2.52807617 -0.019104 C3.43017822 -0.01505554 4.33228027 -0.01100708 5.26171875 -0.00683594 C6.64870972 -0.00970612 6.64870972 -0.00970612 8.0637207 -0.01263428 C10.02067334 -0.0139966 11.97763499 -0.0102969 13.93457031 -0.00195312 C16.93705465 0.00874572 19.93894062 -0.00184685 22.94140625 -0.01464844 C24.83984508 -0.01332685 26.73828353 -0.01076448 28.63671875 -0.00683594 C29.5388208 -0.0108844 30.44092285 -0.01493286 31.37036133 -0.019104 C32.62175903 -0.00964752 32.62175903 -0.00964752 33.8984375 0 C34.63408936 0.00159119 35.36974121 0.00318237 36.12768555 0.00482178 C37.94921875 0.25878906 37.94921875 0.25878906 39.94921875 2.25878906 C40.16097595 4.73267781 40.25321346 7.09190031 40.25 9.56738281 C40.25428513 10.28990738 40.25857025 11.01243195 40.26298523 11.7568512 C40.26873112 13.28588818 40.26922687 14.8149525 40.26489258 16.34399414 C40.26173546 18.6839058 40.28517633 21.02254973 40.31054688 23.36230469 C40.31282014 24.84732913 40.31352324 26.33235698 40.3125 27.81738281 C40.32170975 28.51745956 40.33091949 29.21753632 40.34040833 29.93882751 C40.29407792 34.80337066 40.29407792 34.80337066 38.67375183 36.94316101 C35.60841357 39.28167516 31.71951437 38.68371458 28.01171875 38.65722656 C27.13523682 38.66009674 26.25875488 38.66296692 25.35571289 38.66592407 C23.50308587 38.66796505 21.65043733 38.66243284 19.79785156 38.64990234 C16.95979696 38.6338489 14.12316648 38.64974961 11.28515625 38.66894531 C9.48567394 38.66696289 7.68619251 38.66311922 5.88671875 38.65722656 C5.0366626 38.66329926 4.18660645 38.66937195 3.31079102 38.67562866 C-2.59697422 38.60499365 -2.59697422 38.60499365 -4.77531433 36.94316101 C-6.85235506 34.20023676 -6.45750018 31.11928761 -6.4140625 27.81738281 C-6.414561 27.09390152 -6.41505951 26.37042023 -6.41557312 25.62501526 C-6.41323514 24.09771982 -6.40352278 22.57042034 -6.38696289 21.04321289 C-6.36333193 18.70131133 -6.36640816 16.36054547 -6.37304688 14.01855469 C-6.36747124 12.53482392 -6.36036207 11.05109796 -6.3515625 9.56738281 C-6.35247391 8.86528183 -6.35338531 8.16318085 -6.35432434 7.43980408 C-6.27614871 2.10193203 -5.52288959 0.0119458 0 0 Z " fill="#75D57A" transform="translate(239.05078125,145.7412109375)"/>
<path d="M0 0 C0.83920486 0.00424484 1.67840973 0.00848969 2.54304504 0.01286316 C5.2230337 0.02965411 7.90226995 0.06730645 10.58203125 0.10546875 C12.39907768 0.12051508 14.2161359 0.13420357 16.03320312 0.14648438 C20.48726901 0.17955893 24.94077257 0.23134362 29.39453125 0.29296875 C29.17313477 0.84533203 28.95173828 1.39769531 28.72363281 1.96679688 C24.46269356 12.67013438 20.60539678 23.18076218 18.0859375 34.43359375 C17.39453125 37.29296875 17.39453125 37.29296875 16.39453125 38.29296875 C12.08805489 38.54639111 7.77008071 38.47819513 3.45703125 38.48046875 C2.23822266 38.49271484 1.01941406 38.50496094 -0.23632812 38.51757812 C-1.97946289 38.52047852 -1.97946289 38.52047852 -3.7578125 38.5234375 C-5.36644165 38.52960083 -5.36644165 38.52960083 -7.00756836 38.53588867 C-9.60546875 38.29296875 -9.60546875 38.29296875 -11.60546875 36.29296875 C-11.81722595 33.81908 -11.90946346 31.45985751 -11.90625 28.984375 C-11.91053513 28.26185043 -11.91482025 27.53932587 -11.91923523 26.79490662 C-11.92498112 25.26586963 -11.92547687 23.73680531 -11.92114258 22.20776367 C-11.91798546 19.86785201 -11.94142633 17.52920808 -11.96679688 15.18945312 C-11.96907014 13.70442868 -11.96977324 12.21940083 -11.96875 10.734375 C-11.97795975 10.03429825 -11.98716949 9.3342215 -11.99665833 8.6129303 C-11.95030655 3.74614363 -11.95030655 3.74614363 -10.32150269 1.60562134 C-7.32674479 -0.6851706 -3.61783609 -0.06867316 0 0 Z " fill="#D9E7EB" transform="translate(244.60546875,316.70703125)"/>
<path d="M0 0 C2.97672584 1.77280561 5.42804007 3.85608015 7 7 C7.07926852 9.00770266 7.0920325 11.01815582 7.07421875 13.02734375 C7.06438965 14.2891748 7.05456055 15.55100586 7.04443359 16.85107422 C7.03684021 17.52676453 7.02924683 18.20245483 7.02142334 18.89862061 C6.99982412 21.0172518 6.99021756 23.13566952 6.98291016 25.25439453 C6.9664189 28.93959556 6.91541427 32.6232711 6.84741211 36.30786133 C6.82388964 37.82695247 6.80975829 39.34621457 6.80444336 40.86547852 C6.79516309 43.10012026 6.75432048 45.3322854 6.70703125 47.56640625 C6.6913208 48.87552979 6.67561035 50.18465332 6.65942383 51.53344727 C5.84347073 55.8228653 4.36652633 57.30911966 1 60 C-1.28125 60.6640625 -1.28125 60.6640625 -3.5 60.625 C-4.2321875 60.63789062 -4.964375 60.65078125 -5.71875 60.6640625 C-9.21448232 59.64646919 -10.708183 57.78946071 -13 55 C-13.65942383 51.53344727 -13.65942383 51.53344727 -13.70703125 47.56640625 C-13.72215256 46.85201889 -13.73727386 46.13763153 -13.75285339 45.40159607 C-13.79560864 43.12157991 -13.80452243 40.84287535 -13.8125 38.5625 C-13.835677 37.06571929 -13.86104894 35.56897088 -13.88867188 34.07226562 C-13.9504523 30.4163814 -13.97279349 26.7614753 -13.98425293 23.10513306 C-13.99969527 21.04073787 -14.04233823 18.97860248 -14.09277344 16.91479492 C-14.11500977 15.66931885 -14.13724609 14.42384277 -14.16015625 13.140625 C-14.18601807 12.04395508 -14.21187988 10.94728516 -14.23852539 9.81738281 C-13.98446196 6.81646982 -13.49765735 5.503529 -11.625 3.1875 C-7.58861659 -0.17615284 -5.27622422 -0.52762242 0 0 Z " fill="#00429C" transform="translate(436,15)"/>
<path d="M0 0 C2.97672584 1.77280561 5.42804007 3.85608015 7 7 C7.07926852 9.00770266 7.0920325 11.01815582 7.07421875 13.02734375 C7.06438965 14.2891748 7.05456055 15.55100586 7.04443359 16.85107422 C7.03684021 17.52676453 7.02924683 18.20245483 7.02142334 18.89862061 C6.99982412 21.0172518 6.99021756 23.13566952 6.98291016 25.25439453 C6.9664189 28.93959556 6.91541427 32.6232711 6.84741211 36.30786133 C6.82388964 37.82695247 6.80975829 39.34621457 6.80444336 40.86547852 C6.79516309 43.10012026 6.75432048 45.3322854 6.70703125 47.56640625 C6.6913208 48.87552979 6.67561035 50.18465332 6.65942383 51.53344727 C5.84347073 55.8228653 4.36652633 57.30911966 1 60 C-1.28125 60.6640625 -1.28125 60.6640625 -3.5 60.625 C-4.2321875 60.63789062 -4.964375 60.65078125 -5.71875 60.6640625 C-9.21448232 59.64646919 -10.708183 57.78946071 -13 55 C-13.65942383 51.53344727 -13.65942383 51.53344727 -13.70703125 47.56640625 C-13.72215256 46.85201889 -13.73727386 46.13763153 -13.75285339 45.40159607 C-13.79560864 43.12157991 -13.80452243 40.84287535 -13.8125 38.5625 C-13.835677 37.06571929 -13.86104894 35.56897088 -13.88867188 34.07226562 C-13.9504523 30.4163814 -13.97279349 26.7614753 -13.98425293 23.10513306 C-13.99969527 21.04073787 -14.04233823 18.97860248 -14.09277344 16.91479492 C-14.11500977 15.66931885 -14.13724609 14.42384277 -14.16015625 13.140625 C-14.18601807 12.04395508 -14.21187988 10.94728516 -14.23852539 9.81738281 C-13.98446196 6.81646982 -13.49765735 5.503529 -11.625 3.1875 C-7.58861659 -0.17615284 -5.27622422 -0.52762242 0 0 Z " fill="#00429C" transform="translate(396,15)"/>
<path d="M0 0 C2.97672584 1.77280561 5.42804007 3.85608015 7 7 C7.07926852 9.00770266 7.0920325 11.01815582 7.07421875 13.02734375 C7.06438965 14.2891748 7.05456055 15.55100586 7.04443359 16.85107422 C7.03684021 17.52676453 7.02924683 18.20245483 7.02142334 18.89862061 C6.99982412 21.0172518 6.99021756 23.13566952 6.98291016 25.25439453 C6.9664189 28.93959556 6.91541427 32.6232711 6.84741211 36.30786133 C6.82388964 37.82695247 6.80975829 39.34621457 6.80444336 40.86547852 C6.79516309 43.10012026 6.75432048 45.3322854 6.70703125 47.56640625 C6.6913208 48.87552979 6.67561035 50.18465332 6.65942383 51.53344727 C5.84347073 55.8228653 4.36652633 57.30911966 1 60 C-1.28125 60.6640625 -1.28125 60.6640625 -3.5 60.625 C-4.2321875 60.63789062 -4.964375 60.65078125 -5.71875 60.6640625 C-9.21448232 59.64646919 -10.708183 57.78946071 -13 55 C-13.65942383 51.53344727 -13.65942383 51.53344727 -13.70703125 47.56640625 C-13.72215256 46.85201889 -13.73727386 46.13763153 -13.75285339 45.40159607 C-13.79560864 43.12157991 -13.80452243 40.84287535 -13.8125 38.5625 C-13.835677 37.06571929 -13.86104894 35.56897088 -13.88867188 34.07226562 C-13.9504523 30.4163814 -13.97279349 26.7614753 -13.98425293 23.10513306 C-13.99969527 21.04073787 -14.04233823 18.97860248 -14.09277344 16.91479492 C-14.11500977 15.66931885 -14.13724609 14.42384277 -14.16015625 13.140625 C-14.18601807 12.04395508 -14.21187988 10.94728516 -14.23852539 9.81738281 C-13.98446196 6.81646982 -13.49765735 5.503529 -11.625 3.1875 C-7.58861659 -0.17615284 -5.27622422 -0.52762242 0 0 Z " fill="#00429C" transform="translate(126,15)"/>
<path d="M0 0 C2.97672584 1.77280561 5.42804007 3.85608015 7 7 C7.07926852 9.00770266 7.0920325 11.01815582 7.07421875 13.02734375 C7.06438965 14.2891748 7.05456055 15.55100586 7.04443359 16.85107422 C7.03684021 17.52676453 7.02924683 18.20245483 7.02142334 18.89862061 C6.99982412 21.0172518 6.99021756 23.13566952 6.98291016 25.25439453 C6.9664189 28.93959556 6.91541427 32.6232711 6.84741211 36.30786133 C6.82388964 37.82695247 6.80975829 39.34621457 6.80444336 40.86547852 C6.79516309 43.10012026 6.75432048 45.3322854 6.70703125 47.56640625 C6.6913208 48.87552979 6.67561035 50.18465332 6.65942383 51.53344727 C5.84347073 55.8228653 4.36652633 57.30911966 1 60 C-1.28125 60.6640625 -1.28125 60.6640625 -3.5 60.625 C-4.2321875 60.63789062 -4.964375 60.65078125 -5.71875 60.6640625 C-9.21448232 59.64646919 -10.708183 57.78946071 -13 55 C-13.65942383 51.53344727 -13.65942383 51.53344727 -13.70703125 47.56640625 C-13.72215256 46.85201889 -13.73727386 46.13763153 -13.75285339 45.40159607 C-13.79560864 43.12157991 -13.80452243 40.84287535 -13.8125 38.5625 C-13.835677 37.06571929 -13.86104894 35.56897088 -13.88867188 34.07226562 C-13.9504523 30.4163814 -13.97279349 26.7614753 -13.98425293 23.10513306 C-13.99969527 21.04073787 -14.04233823 18.97860248 -14.09277344 16.91479492 C-14.11500977 15.66931885 -14.13724609 14.42384277 -14.16015625 13.140625 C-14.18601807 12.04395508 -14.21187988 10.94728516 -14.23852539 9.81738281 C-13.98446196 6.81646982 -13.49765735 5.503529 -11.625 3.1875 C-7.58861659 -0.17615284 -5.27622422 -0.52762242 0 0 Z " fill="#00429C" transform="translate(86,15)"/>
<path d="M0 0 C3.71504054 0.61917342 4.67961384 1.5849192 7 4.5 C7.48101807 7.06903076 7.48101807 7.06903076 7.45410156 10.00292969 C7.45379944 11.10376892 7.45349731 12.20460815 7.45318604 13.33880615 C7.43254089 14.52121887 7.41189575 15.70363159 7.390625 16.921875 C7.38496521 18.13699768 7.37930542 19.35212036 7.37347412 20.60406494 C7.35107734 24.48644343 7.30087187 28.36790028 7.25 32.25 C7.2299394 34.88149709 7.21168787 37.51300864 7.1953125 40.14453125 C7.15120125 46.59670947 7.08214831 53.04819846 7 59.5 C2.38 62.14 -2.24 64.78 -7 67.5 C-7.090393 59.35489511 -7.16376804 51.21018056 -7.20724869 43.06470871 C-7.22811795 39.28237005 -7.25642248 35.50039253 -7.30175781 31.71826172 C-7.34524074 28.06779688 -7.36914209 24.41767924 -7.37950897 20.7669754 C-7.3868961 19.37468246 -7.40132175 17.98240838 -7.42292023 16.59026337 C-7.45198041 14.63946589 -7.45363412 12.68831854 -7.45410156 10.73730469 C-7.46298401 9.6269989 -7.47186646 8.51669312 -7.48101807 7.3727417 C-6.70815132 2.7570179 -4.56522187 0.76087031 0 0 Z " fill="#0066EC" transform="translate(386,308.5)"/>
<path d="M0 0 C0.75042068 0.00424484 1.50084137 0.00848969 2.27400208 0.01286316 C4.66871151 0.02964425 7.06257659 0.06729385 9.45703125 0.10546875 C11.08136805 0.1205164 12.70571805 0.13420466 14.33007812 0.14648438 C18.31022073 0.1795457 22.28973288 0.23132281 26.26953125 0.29296875 C23.99793079 2.56456921 22.0719223 3.35183926 19.14453125 4.66796875 C8.07023026 10.09157092 -1.48668155 18.21785397 -10.73046875 26.29296875 C-10.81745375 22.52228043 -10.87085454 18.75184943 -10.91796875 14.98046875 C-10.94310547 13.90861328 -10.96824219 12.83675781 -10.99414062 11.73242188 C-11.00380859 10.70439453 -11.01347656 9.67636719 -11.0234375 8.6171875 C-11.03914795 7.66932373 -11.0548584 6.72145996 -11.07104492 5.74487305 C-10.73046875 3.29296875 -10.73046875 3.29296875 -9.6953125 1.47851562 C-6.6223066 -0.37567382 -3.47919975 -0.07397639 0 0 Z " fill="#DAE6E8" transform="translate(307.73046875,259.70703125)"/>
<path d="M0 0 C0.11638036 3.24969769 0.18730581 6.4988583 0.25 9.75 C0.28351563 10.67039062 0.31703125 11.59078125 0.3515625 12.5390625 C0.45037546 19.3571564 0.45037546 19.3571564 -1.828125 22.609375 C-4.80244452 24.51379541 -6.53375108 24.57770815 -10 24 C-12.7200972 21.87772636 -13.85289871 20.55588803 -14.7421875 17.1953125 C-14.88590822 13.8728276 -14.87382417 11.21980532 -14 8 C-11.01955159 5.14487209 -7.75033147 3.6418774 -4 2 C-1 0 -1 0 0 0 Z " fill="#0267ED" transform="translate(393,385)"/>
<path d="M0 0 C3.41254763 2.42815889 5.67680763 4.51521145 8 8 C8.45667063 11.5772533 8.43777431 13.33458305 6.4375 16.375 C3.00932673 18.66044885 1.04989831 18.6284325 -3 18 C-5.968533 16.20430258 -8.42401036 14.15197928 -10 11 C-10.35872645 7.12575435 -10.56710729 4.85066094 -8.375 1.5625 C-5.22306429 -0.51114192 -3.71443562 -0.66859841 0 0 Z " fill="#C6D4DE" transform="translate(434,412)"/>
<path d="M0 0 C5.11535692 1.43588966 7.64317224 3.62100836 10.5625 8 C11.01917063 11.5772533 11.00027431 13.33458305 9 16.375 C5.57182673 18.66044885 3.61239831 18.6284325 -0.4375 18 C-3.406033 16.20430258 -5.86151036 14.15197928 -7.4375 11 C-7.79502493 7.1387308 -7.95796997 4.83275196 -5.875 1.5 C-3.4375 0 -3.4375 0 0 0 Z " fill="#C6D4DE" transform="translate(339.4375,320)"/>
<path d="M0 0 C3.45637112 0.86409278 4.73668966 1.7449695 6.75 4.6875 C7.375 7.5 7.375 7.5 6.75 10.6875 C4.58848314 13.90341533 2.25279758 16.93610121 -1.25 18.6875 C-4.79231061 19.07253376 -6.61257342 19.10685959 -9.625 17.125 C-11.25 14.6875 -11.25 14.6875 -12 11.375 C-11.03528477 6.63181678 -9.14725195 4.94413404 -5.4140625 2.015625 C-3.25 0.6875 -3.25 0.6875 0 0 Z " fill="#C5D3DD" transform="translate(342.25,412.3125)"/>
<path d="M0 0 C3.80679347 0.8619155 5.17037666 1.49397252 7.3125 4.75 C7.9375 7.5625 7.9375 7.5625 7.3125 10.75 C5.15098314 13.96591533 2.81529758 16.99860121 -0.6875 18.75 C-4.2692622 19.13932198 -6.05031721 19.18596718 -9.0625 17.125 C-10.6875 14.75 -10.6875 14.75 -11.375 12 C-10.07326769 5.84635636 -6.205104 1.26205505 0 0 Z " fill="#C5D3DD" transform="translate(433.6875,320.25)"/>
<path d="M0 0 C1.03125 -0.0103125 2.0625 -0.020625 3.125 -0.03125 C6.65372071 0.62079622 7.83707582 1.68411758 10 4.5 C10.5 7.5 10.5 7.5 10 10.5 C7.83707582 13.31588242 6.65372071 14.37920378 3.125 15.03125 C2.09375 15.0209375 1.0625 15.010625 0 15 C-1.546875 15.01546875 -1.546875 15.01546875 -3.125 15.03125 C-6.65372071 14.37920378 -7.83707582 13.31588242 -10 10.5 C-10.5 7.5 -10.5 7.5 -10 4.5 C-6.99404507 0.58658698 -4.86364671 -0.04863647 0 0 Z " fill="#C6D4DD" transform="translate(451,367.5)"/>
<path d="M0 0 C1.03125 -0.0103125 2.0625 -0.020625 3.125 -0.03125 C6.65372071 0.62079622 7.83707582 1.68411758 10 4.5 C10.5 7.5 10.5 7.5 10 10.5 C7.83707582 13.31588242 6.65372071 14.37920378 3.125 15.03125 C2.09375 15.0209375 1.0625 15.010625 0 15 C-1.546875 15.01546875 -1.546875 15.01546875 -3.125 15.03125 C-6.65372071 14.37920378 -7.83707582 13.31588242 -10 10.5 C-10.5 7.5 -10.5 7.5 -10 4.5 C-6.99404507 0.58658698 -4.86364671 -0.04863647 0 0 Z " fill="#C6D4DD" transform="translate(321,367.5)"/>
<path d="M0 0 C3.72729694 0.62121616 4.68607792 1.55857363 7 4.5 C7.53125 7.375 7.53125 7.375 7.5 10.5 C7.5103125 11.53125 7.520625 12.5625 7.53125 13.625 C6.87920378 17.15372071 5.81588242 18.33707582 3 20.5 C0 21 0 21 -3 20.5 C-5.81588242 18.33707582 -6.87920378 17.15372071 -7.53125 13.625 C-7.5209375 12.59375 -7.510625 11.5625 -7.5 10.5 C-7.5103125 9.46875 -7.520625 8.4375 -7.53125 7.375 C-6.68340237 2.78664815 -4.56626014 0.76104336 0 0 Z " fill="#C6D3DD" transform="translate(386,430.5)"/>
<path d="M0 0 C2.30275556 1.8670991 3.67823871 3.35647741 5 6 C5.09128293 7.94044277 5.11752248 9.8840756 5.11352539 11.82666016 C5.11344986 13.04777496 5.11337433 14.26888977 5.11329651 15.52700806 C5.10818952 16.86435995 5.10297352 18.20171143 5.09765625 19.5390625 C5.0957914 20.90383859 5.09436781 22.26861534 5.09336853 23.63339233 C5.08954863 27.22715093 5.07972283 30.82086917 5.06866455 34.41461182 C5.05843911 38.08108982 5.05386848 41.74757435 5.04882812 45.4140625 C5.0381001 52.60939341 5.02102999 59.80469105 5 67 C4.67 67 4.34 67 4 67 C3.67 48.19 3.34 29.38 3 10 C-5.09204062 8.46453677 -5.09204062 8.46453677 -9 10 C-9.33 31.45 -9.66 52.9 -10 75 C-10.33 75 -10.66 75 -11 75 C-11.04634244 66.07261759 -11.08187889 57.1452766 -11.10362434 48.21780014 C-11.11406111 44.07240296 -11.12821835 39.92708809 -11.15087891 35.78173828 C-11.17261111 31.78117311 -11.18456943 27.78068709 -11.18975449 23.78006744 C-11.19344956 22.25384525 -11.20066511 20.72762739 -11.21146011 19.2014389 C-11.22598018 17.06355936 -11.22797775 14.92600686 -11.22705078 12.78808594 C-11.231492 11.5711908 -11.23593323 10.35429565 -11.24050903 9.1005249 C-11.00704005 6.09075694 -10.69803944 4.46135557 -9 2 C-5.50875983 -0.32749345 -4.10777749 -0.50299316 0 0 Z " fill="#A4C4EA" transform="translate(389,301)"/>
<path d="M0 0 C10.56 0 21.12 0 32 0 C32 5.28 32 10.56 32 16 C29.91465088 13.2195345 28.33616217 10.96731098 26.8125 7.9375 C26.46832031 7.26589844 26.12414062 6.59429687 25.76953125 5.90234375 C25 4 25 4 25 1 C16.75 1 8.5 1 0 1 C0 0.67 0 0.34 0 0 Z " fill="#75C3F9" transform="translate(33,346)"/>
</svg>
